<svg xmlns="http://www.w3.org/2000/svg" data-name="Layer 1" viewBox="0 0 700 550" id="christmas-gifts-on-the-sledge"><path fill="#edf2fa" d="M511.244 355.003c-31.878 51.716-92.655 96.458-162.693 98.438C222.55 457.001 109.834 320.937 130 228.281c6.586-30.254 29.72-66.823 64.79-78.682 55.645-18.817 85.753 43.375 180.918 54.411 85.342 9.9 124.412-32.778 153.311-6.295 32.395 29.685 11.75 109.388-17.775 157.288"></path><path fill="#edf2fa" d="M497.264 128.543c6.645 5.594 9.636 16.006 7.341 24.131-8.414 29.785-87.98 29.189-94.133 29.095-75.642-1.147-137.252-39.794-134.942-46.503 2.243-6.51 60.078 30.451 133.546 12.51 40.751-9.951 71.595-33.202 88.188-19.233"></path><path fill="#fff" d="M477.325 169.115a.534.534 0 0 0-.224-.72l-5.658-2.985-1.437-4.834 4.735 2.498a.534.534 0 0 0 .78-.414l.042-.403a.525.525 0 0 0-.007-.167l-1.063-5.08 4.518 2.447 1.247 5.964a.502.502 0 0 0 .108.229.533.533 0 0 0 .935-.447l-1.061-5.08 1.589.86a1.46 1.46 0 0 0 .331 1.272 1.602 1.602 0 0 0 2.478-2.027 1.517 1.517 0 0 0-2.248-.154l-1.675-.908 5.066-1.566a.534.534 0 0 0-.316-1.02l-6.063 1.875-4.433-2.402 5.066-1.566a.534.534 0 0 0 .257-.844l-.253-.315-.003-.004a.584.584 0 0 0-.12-.109l-4.364-2.853 5.115-1.52 5.222 3.154a.533.533 0 1 0 .552-.913l-4.392-2.653 2.09-.62c.016.02.024.042.041.063a1.601 1.601 0 0 0 2.478-2.026 1.622 1.622 0 0 0-2.833.943l-2.23.663 2.33-4.83a.533.533 0 1 0-.96-.463l-2.752 5.703-4.97 1.478 2.463-4.67a.54.54 0 0 0 0-.5.525.525 0 0 0-.415-.28l-.403-.043a.549.549 0 0 0-.165.009l-5.09 1.064 2.448-4.517 5.973-1.249a.534.534 0 0 0-.219-1.044l-5.089 1.065.927-1.713a1.623 1.623 0 0 0 1.36-2.606 1.602 1.602 0 0 0-2.478 2.027 1.973 1.973 0 0 0 .14.141l-.9 1.664-1.563-5.057a.534.534 0 1 0-1.02.316l1.873 6.053-2.403 4.434-1.564-5.057a.529.529 0 0 0-.415-.368l-.411-.074a.53.53 0 0 0-.552.25l-2.742 4.538-1.451-4.882 3.244-5.37a.534.534 0 0 0-.913-.552l-2.742 4.54-.53-1.787a1.516 1.516 0 0 0 .304-2.24 1.602 1.602 0 0 0-2.48 2.026 1.462 1.462 0 0 0 1.17.578l.49 1.654-4.671-2.255a.533.533 0 1 0-.464.96l5.547 2.677 1.452 4.88-4.674-2.254a.534.534 0 0 0-.539.044l-.337.237a.531.531 0 0 0-.212.565l1.259 5.102-4.477-2.426-1.492-6.044a.533.533 0 0 0-1.035.256l1.258 5.1-1.504-.813a1.459 1.459 0 0 0-.334-1.259 1.6 1.6 0 0 0-2.477 2.026 1.516 1.516 0 0 0 2.257.145l1.54.835-4.944 1.725a.533.533 0 0 0-.329.68.509.509 0 0 0 .091.16.532.532 0 0 0 .589.167l5.86-2.045 4.477 2.426-4.942 1.725a.53.53 0 0 0-.35.41l-.072.409a.535.535 0 0 0 .249.549l4.479 2.704-4.697 1.397-5.2-3.403a.533.533 0 0 0-.584.892l4.445 2.91-1.88.558c-.026-.04-.045-.078-.075-.115a1.602 1.602 0 0 0-2.48 2.026 1.622 1.622 0 0 0 2.83-.88l1.782-.53-2.415 4.576a.534.534 0 0 0 .06.587.535.535 0 0 0 .885-.09l2.901-5.499 4.75-1.412-2.286 4.738a.531.531 0 0 0 .045.538l.236.339.024.031a.534.534 0 0 0 .541.18l5.093-1.257-2.426 4.478-6.035 1.49a.533.533 0 0 0-.39.645.539.539 0 0 0 .104.21.531.531 0 0 0 .542.18l5.093-1.257-.778 1.436a1.622 1.622 0 0 0-1.488 2.59 1.602 1.602 0 0 0 2.48-2.027c-.018-.02-.037-.034-.054-.053l.778-1.438 1.728 4.952a.533.533 0 0 0 1.007-.35l-2.048-5.87 2.425-4.477 1.73 4.951a.533.533 0 0 0 .843.236l.31-.257a.592.592 0 0 0 .106-.119l2.816-4.305 1.463 4.925-3.31 5.06a.535.535 0 0 0 .033.63.522.522 0 0 0 .12.108.532.532 0 0 0 .74-.155l2.816-4.304.536 1.807a1.514 1.514 0 0 0-.286 2.228 1.6 1.6 0 0 0 2.477-2.026 1.456 1.456 0 0 0-1.188-.576l-.546-1.835 4.735 2.499a.535.535 0 0 0 .722-.224m-2.945-7.438-4.799-2.532-1.699-5.717 5.383 2.915Zm4.41-7.923-5.134 1.588-5.265-2.852 5.821-1.731Zm-2.481-8.721-2.498 4.733-5.724 1.701 2.88-5.316Zm-8.013-4.705 1.675 5.42-2.822 5.21-1.739-5.85Zm-8.91 2.607 4.978 2.402 1.762 5.926-5.406-2.929Zm-4.448 8.168 5.262-1.836 5.417 2.934-5.939 1.766Zm2.63 8.922 2.432-5.04 5.921-1.761-2.964 5.47Zm8.068 4.166-1.74-4.988 2.963-5.47 1.756 5.905ZM230.822 339.827a1.122 1.122 0 0 0-.468-1.515l-11.893-6.273-3.02-10.163 9.952 5.253a1.122 1.122 0 0 0 1.638-.871l.09-.847a1.18 1.18 0 0 0-.016-.35l-2.232-10.68 9.493 5.145 2.622 12.538a1.114 1.114 0 0 0 .229.478 1.121 1.121 0 0 0 1.967-.938l-2.233-10.68 3.341 1.81a3.077 3.077 0 0 0 .696 2.672c2.74 3.35 7.956-.901 5.21-4.259a3.189 3.189 0 0 0-4.726-.324l-3.524-1.909 10.653-3.293a1.122 1.122 0 1 0-.664-2.143l-12.746 3.941-9.32-5.05 10.65-3.292a1.122 1.122 0 0 0 .543-1.775l-.534-.663-.006-.006a1.105 1.105 0 0 0-.255-.228l-9.17-6 10.75-3.195 10.976 6.63a1.122 1.122 0 0 0 1.162-1.92l-9.23-5.575 4.392-1.305c.032.043.051.089.087.132 2.74 3.353 7.954-.901 5.21-4.259-2.132-2.606-5.742-.61-5.959 1.983l-4.686 1.393 4.898-10.152a1.121 1.121 0 0 0-2.02-.974l-5.784 11.99-10.448 3.105 5.179-9.816a1.116 1.116 0 0 0-.004-1.05 1.093 1.093 0 0 0-.868-.587l-.846-.09a1.141 1.141 0 0 0-.35.016l-10.699 2.237 5.143-9.494 12.559-2.625a1.122 1.122 0 1 0-.46-2.195l-10.697 2.236 1.948-3.598c2.496.064 4.918-2.96 2.858-5.478-2.74-3.353-7.954.9-5.209 4.257a3.518 3.518 0 0 0 .298.3l-1.894 3.496-3.287-10.632a1.122 1.122 0 0 0-2.143.664l3.936 12.727-5.05 9.32-3.287-10.631a1.118 1.118 0 0 0-.871-.772l-.869-.158a1.12 1.12 0 0 0-1.16.523l-5.762 9.544-3.05-10.26 6.818-11.29a1.122 1.122 0 0 0-1.92-1.162l-5.763 9.543-1.116-3.755a3.187 3.187 0 0 0 .64-4.708c-2.74-3.353-7.954.9-5.209 4.257a3.068 3.068 0 0 0 2.456 1.214l1.032 3.476-9.823-4.74a1.121 1.121 0 0 0-.974 2.02l11.661 5.628 3.05 10.26-9.822-4.74a1.119 1.119 0 0 0-1.131.093l-.712.499a1.123 1.123 0 0 0-.445 1.188l2.648 10.724-9.412-5.099-3.138-12.706a1.121 1.121 0 1 0-2.177.537l2.648 10.724-3.163-1.712a3.07 3.07 0 0 0-.7-2.646c-2.742-3.352-7.956.9-5.21 4.259a3.191 3.191 0 0 0 4.745.306l3.236 1.753-10.392 3.627a1.121 1.121 0 1 0 .74 2.117l12.318-4.3 9.413 5.1-10.392 3.626a1.125 1.125 0 0 0-.736.865l-.15.857a1.125 1.125 0 0 0 .523 1.155l9.416 5.686-9.872 2.933-10.934-7.153a1.122 1.122 0 0 0-1.228 1.877l9.347 6.114-3.955 1.175c-.055-.08-.095-.162-.16-.24-2.74-3.351-7.952.9-5.208 4.258 2.095 2.563 5.624.678 5.95-1.851l3.745-1.113-5.076 9.618a1.123 1.123 0 0 0 .124 1.234 1.136 1.136 0 0 0 .345.281 1.122 1.122 0 0 0 1.516-.469l6.097-11.558 9.986-2.968-4.805 9.957a1.119 1.119 0 0 0 .091 1.131l.5.712c.016.024.033.045.05.067a1.125 1.125 0 0 0 1.137.378l10.706-2.642-5.1 9.412-12.687 3.132a1.12 1.12 0 0 0-.82 1.357 1.14 1.14 0 0 0 .22.44 1.121 1.121 0 0 0 1.138.38l10.705-2.642-1.634 3.017c-2.584-.3-5.258 2.836-3.125 5.444 2.74 3.352 7.954-.902 5.209-4.259-.036-.043-.077-.073-.114-.113l1.637-3.02 3.633 10.41a1.121 1.121 0 0 0 2.118-.738l-4.306-12.34 5.098-9.411 3.633 10.41a1.12 1.12 0 0 0 1.776.493l.652-.54a1.128 1.128 0 0 0 .222-.25l5.92-9.05 3.077 10.354-6.96 10.638a1.122 1.122 0 0 0 .07 1.323 1.09 1.09 0 0 0 .255.229 1.12 1.12 0 0 0 1.552-.325l5.92-9.05 1.128 3.797a3.183 3.183 0 0 0-.603 4.684c2.74 3.352 7.954-.901 5.209-4.258a3.058 3.058 0 0 0-2.499-1.21l-1.146-3.859 9.953 5.252a1.12 1.12 0 0 0 1.514-.469m-6.19-15.636-10.085-5.321-3.572-12.018 11.313 6.13Zm9.274-16.653-10.794 3.337-11.067-5.996 12.236-3.638Zm-5.218-18.333-5.248 9.947-12.036 3.577 6.055-11.177Zm-16.843-9.894 3.521 11.394-5.935 10.956-3.656-12.302Zm-18.73 5.484 10.464 5.047 3.702 12.457-11.363-6.155Zm-9.352 17.17 11.062-3.861 11.388 6.168-12.486 3.711Zm5.528 18.755 5.114-10.597 12.446-3.7-6.23 11.5Zm16.962 8.755-3.66-10.484 6.23-11.5 3.69 12.415ZM274.318 225.014a.717.717 0 0 0-.299-.967l-7.585-4.001-1.927-6.481 6.348 3.35a.715.715 0 0 0 1.044-.557l.058-.54a.703.703 0 0 0-.01-.224l-1.423-6.81 6.053 3.28 1.673 7.999a.696.696 0 0 0 .146.305.715.715 0 0 0 1.254-.599l-1.424-6.812 2.131 1.155a1.956 1.956 0 0 0 .444 1.704c1.749 2.137 5.073-.575 3.322-2.717a2.032 2.032 0 0 0-3.013-.205l-2.247-1.219 6.792-2.1a.715.715 0 1 0-.423-1.366l-8.13 2.513-5.943-3.22 6.793-2.1a.716.716 0 0 0 .346-1.132l-.34-.423-.003-.003a.681.681 0 0 0-.164-.146l-5.85-3.826 6.857-2.038 7 4.228a.716.716 0 1 0 .742-1.224l-5.887-3.555 2.8-.833c.022.027.035.056.056.085 1.749 2.137 5.074-.576 3.323-2.717-1.359-1.662-3.661-.39-3.799 1.265l-2.99.888 3.124-6.475a.715.715 0 0 0-1.287-.622l-3.69 7.648-6.662 1.98 3.301-6.26a.714.714 0 0 0-.001-.67.697.697 0 0 0-.554-.374l-.541-.058a.689.689 0 0 0-.221.011l-6.823 1.427 3.28-6.055 8.008-1.676a.715.715 0 1 0-.293-1.4l-6.823 1.428 1.243-2.295a2.177 2.177 0 0 0 1.824-3.494c-1.748-2.137-5.074.574-3.323 2.715a2.198 2.198 0 0 0 .19.19l-1.207 2.232-2.096-6.78a.716.716 0 0 0-1.368.422l2.51 8.117-3.221 5.943-2.095-6.78a.717.717 0 0 0-.556-.493l-.554-.099a.714.714 0 0 0-.74.333l-3.676 6.087-1.945-6.544 4.349-7.2a.715.715 0 0 0-1.223-.74l-3.676 6.086-.712-2.394a2.035 2.035 0 0 0 .408-3.005c-1.748-2.137-5.073.576-3.322 2.717a1.965 1.965 0 0 0 1.566.773l.659 2.218-6.265-3.024a.716.716 0 0 0-.865 1.097.708.708 0 0 0 .243.19l7.437 3.59 1.946 6.543-6.265-3.021a.716.716 0 0 0-.722.059l-.454.318a.717.717 0 0 0-.283.756l1.688 6.84-6.002-3.251-2.001-8.104a.715.715 0 1 0-1.388.343l1.688 6.84-2.016-1.093a1.96 1.96 0 0 0-.449-1.687c-1.748-2.139-5.072.575-3.321 2.716a2.035 2.035 0 0 0 3.026.195l2.064 1.118-6.627 2.313a.715.715 0 1 0 .47 1.35l7.857-2.742 6.002 3.252-6.626 2.312a.72.72 0 0 0-.47.552l-.095.547a.719.719 0 0 0 .334.737l6.003 3.626-6.294 1.87-6.974-4.562a.715.715 0 1 0-.783 1.198l5.96 3.899-2.52.749c-.036-.05-.062-.102-.102-.152-1.748-2.138-5.073.574-3.322 2.715a2.175 2.175 0 0 0 3.793-1.181l2.389-.71-3.236 6.134a.716.716 0 0 0 .078.786.697.697 0 0 0 .221.181.713.713 0 0 0 .965-.299l3.889-7.371 6.37-1.893-3.065 6.35a.711.711 0 0 0 .058.722l.32.455a.41.41 0 0 0 .031.041.716.716 0 0 0 .724.241l6.829-1.685-3.252 6.002-8.093 1.998a.715.715 0 0 0-.522.866.695.695 0 0 0 .14.28.713.713 0 0 0 .725.242l6.828-1.685-1.042 1.925c-1.649-.191-3.354 1.807-1.994 3.471 1.749 2.138 5.073-.575 3.322-2.716-.021-.027-.049-.045-.072-.072l1.044-1.926 2.318 6.639a.715.715 0 1 0 1.35-.47l-2.745-7.87 3.25-6.003 2.319 6.64a.716.716 0 0 0 1.132.316l.415-.347a.711.711 0 0 0 .141-.158l3.775-5.771 1.963 6.601-4.44 6.785a.715.715 0 0 0 .046.844.659.659 0 0 0 .163.146.714.714 0 0 0 .99-.207l3.774-5.772.72 2.421a2.032 2.032 0 0 0-.386 2.988c1.749 2.139 5.074-.574 3.323-2.716a1.956 1.956 0 0 0-1.592-.772l-.733-2.459 6.348 3.35a.716.716 0 0 0 .967-.3m-3.949-9.972-6.431-3.394-2.278-7.665 7.215 3.909Zm5.914-10.622-6.884 2.13-7.058-3.824 7.805-2.321Zm-3.327-11.692-3.346 6.345-7.677 2.28 3.863-7.128Zm-10.743-6.31 2.247 7.268-3.786 6.987-2.33-7.847Zm-11.943 3.498 6.672 3.22 2.362 7.945-7.248-3.928Zm-5.964 10.95 7.054-2.462 7.263 3.933-7.963 2.367Zm3.525 11.96 3.26-6.757 7.938-2.36-3.973 7.335Zm10.818 5.585-2.334-6.686 3.973-7.334 2.354 7.918ZM461.434 373.743a.717.717 0 0 0-.3-.966l-7.584-4.002-1.927-6.48 6.348 3.35a.715.715 0 0 0 1.043-.558l.059-.54a.703.703 0 0 0-.01-.223l-1.423-6.81 6.053 3.28 1.673 7.998a.697.697 0 0 0 .146.305.715.715 0 0 0 1.254-.598l-1.424-6.813 2.131 1.155a1.956 1.956 0 0 0 .444 1.704c1.749 2.137 5.073-.574 3.322-2.716a2.032 2.032 0 0 0-3.013-.206l-2.247-1.218 6.792-2.1a.715.715 0 1 0-.423-1.367l-8.13 2.513-5.943-3.219 6.793-2.101a.716.716 0 0 0 .346-1.132l-.341-.423-.003-.003a.681.681 0 0 0-.163-.146l-5.85-3.826 6.857-2.037 7 4.227a.716.716 0 1 0 .742-1.224l-5.887-3.555 2.8-.833c.021.028.035.056.056.085 1.748 2.137 5.074-.576 3.323-2.716-1.36-1.662-3.661-.39-3.8 1.264l-2.988.888 3.123-6.474a.715.715 0 0 0-1.288-.623l-3.689 7.648-6.663 1.98 3.302-6.26a.714.714 0 0 0-.001-.67.697.697 0 0 0-.554-.374l-.541-.057a.689.689 0 0 0-.222.01l-6.823 1.427 3.28-6.055 8.01-1.675a.715.715 0 1 0-.294-1.4l-6.823 1.427 1.243-2.295a2.177 2.177 0 0 0 1.824-3.494c-1.748-2.137-5.074.574-3.323 2.715a2.196 2.196 0 0 0 .189.19l-1.206 2.232-2.097-6.78a.716.716 0 0 0-1.367.422l2.51 8.117-3.221 5.944-2.096-6.78a.717.717 0 0 0-.555-.493l-.554-.1a.714.714 0 0 0-.74.333l-3.677 6.087-1.944-6.544 4.348-7.2a.715.715 0 0 0-1.222-.74l-3.676 6.086-.712-2.394a2.035 2.035 0 0 0 .408-3.005c-1.749-2.137-5.073.576-3.322 2.718a1.965 1.965 0 0 0 1.566.773l.658 2.217-6.264-3.024a.716.716 0 0 0-.865 1.097.708.708 0 0 0 .243.19l7.437 3.59 1.945 6.544-6.264-3.022a.716.716 0 0 0-.723.059l-.453.318a.717.717 0 0 0-.284.756l1.689 6.84-6.002-3.251-2.001-8.103a.715.715 0 1 0-1.388.342l1.688 6.84-2.016-1.093a1.96 1.96 0 0 0-.449-1.687c-1.748-2.138-5.072.575-3.322 2.716a2.035 2.035 0 0 0 3.027.195l2.064 1.118-6.627 2.313a.715.715 0 1 0 .47 1.35l7.857-2.742 6.002 3.253-6.627 2.312a.72.72 0 0 0-.469.551l-.095.547a.719.719 0 0 0 .333.737l6.004 3.626-6.294 1.87-6.974-4.561a.715.715 0 1 0-.783 1.198l5.96 3.898-2.52.75c-.037-.051-.062-.103-.102-.153-1.749-2.138-5.073.575-3.322 2.715a2.175 2.175 0 0 0 3.793-1.18l2.389-.71-3.236 6.134a.716.716 0 0 0 .078.786.697.697 0 0 0 .221.18.713.713 0 0 0 .965-.299l3.889-7.37 6.37-1.894-3.065 6.35a.711.711 0 0 0 .058.722l.32.455a.412.412 0 0 0 .03.042.716.716 0 0 0 .725.24l6.829-1.685-3.253 6.003-8.092 1.997a.715.715 0 0 0-.522.866.695.695 0 0 0 .14.28.713.713 0 0 0 .725.242l6.828-1.685-1.042 1.925c-1.65-.191-3.354 1.807-1.994 3.472 1.748 2.137 5.073-.576 3.322-2.717-.022-.027-.049-.045-.072-.071l1.044-1.927 2.318 6.639a.715.715 0 1 0 1.35-.47l-2.746-7.87 3.252-6.003 2.317 6.64a.716.716 0 0 0 1.132.316l.416-.347a.71.71 0 0 0 .14-.158l3.776-5.771 1.963 6.602-4.44 6.784a.715.715 0 0 0 .046.844.658.658 0 0 0 .162.146.714.714 0 0 0 .99-.207l3.775-5.771.72 2.42a2.032 2.032 0 0 0-.386 2.988c1.748 2.139 5.074-.574 3.323-2.716a1.956 1.956 0 0 0-1.593-.772l-.732-2.459 6.348 3.35a.716.716 0 0 0 .967-.3m-3.949-9.972-6.432-3.394-2.277-7.665 7.215 3.91Zm5.914-10.621-6.884 2.128-7.058-3.823 7.804-2.321Zm-3.327-11.692-3.347 6.344-7.676 2.28 3.863-7.127Zm-10.743-6.31 2.247 7.267-3.786 6.987-2.33-7.846Zm-11.943 3.497 6.672 3.22 2.362 7.945-7.248-3.927Zm-5.964 10.95 7.054-2.462 7.263 3.933-7.963 2.367Zm3.525 11.96 3.26-6.756 7.938-2.36-3.973 7.334Zm10.817 5.585-2.333-6.686 3.973-7.334 2.353 7.918ZM523.229 265.363a.716.716 0 0 0-.3-.966l-7.584-4.003-1.927-6.48 6.348 3.35a.714.714 0 0 0 1.043-.556l.059-.54a.704.704 0 0 0-.01-.224l-1.423-6.81 6.053 3.28 1.673 7.997a.695.695 0 0 0 .146.306.715.715 0 0 0 1.254-.6l-1.424-6.81 2.131 1.154a1.954 1.954 0 0 0 .444 1.703c1.748 2.139 5.073-.574 3.322-2.715a2.032 2.032 0 0 0-3.013-.207l-2.247-1.218 6.792-2.1a.715.715 0 1 0-.423-1.365l-8.13 2.512-5.943-3.22 6.793-2.1a.716.716 0 0 0 .346-1.132l-.341-.422-.003-.005a.702.702 0 0 0-.163-.145l-5.85-3.826 6.857-2.038 7 4.229a.716.716 0 0 0 .742-1.226l-5.887-3.554 2.8-.834c.021.029.035.058.056.085 1.748 2.139 5.074-.574 3.323-2.716-1.36-1.661-3.661-.389-3.8 1.265l-2.988.888 3.123-6.474a.715.715 0 0 0-1.288-.622l-3.689 7.647-6.663 1.98 3.302-6.259a.717.717 0 0 0-.001-.671.696.696 0 0 0-.554-.374l-.541-.058a.69.69 0 0 0-.222.012l-6.823 1.425 3.28-6.054 8.01-1.675a.715.715 0 1 0-.294-1.4l-6.823 1.426 1.243-2.294a2.177 2.177 0 0 0 1.824-3.494c-1.748-2.137-5.074.575-3.323 2.715a2.048 2.048 0 0 0 .19.19l-1.207 2.232-2.097-6.78a.716.716 0 0 0-1.367.422l2.51 8.116-3.221 5.945-2.095-6.781a.714.714 0 0 0-.556-.492l-.554-.1a.717.717 0 0 0-.74.333l-3.675 6.086-1.946-6.543 4.349-7.2a.715.715 0 0 0-1.223-.74l-3.676 6.087-.712-2.396a2.033 2.033 0 0 0 .408-3.003c-1.749-2.138-5.073.575-3.322 2.716a1.962 1.962 0 0 0 1.566.773l.658 2.218-6.264-3.023a.716.716 0 0 0-.865 1.097.723.723 0 0 0 .243.19l7.437 3.589 1.946 6.544-6.265-3.021a.713.713 0 0 0-.722.058l-.454.317a.72.72 0 0 0-.284.758l1.689 6.84-6.002-3.253-2.001-8.103a.715.715 0 1 0-1.388.343l1.688 6.84-2.016-1.094a1.96 1.96 0 0 0-.449-1.687c-1.748-2.137-5.072.576-3.322 2.718a2.036 2.036 0 0 0 3.027.195l2.064 1.116-6.627 2.314a.715.715 0 1 0 .47 1.351l7.857-2.742 6.002 3.252-6.626 2.312a.717.717 0 0 0-.47.552l-.095.547a.719.719 0 0 0 .334.737l6.004 3.625-6.295 1.87-6.974-4.56a.715.715 0 1 0-.783 1.196l5.96 3.9-2.52.749c-.036-.05-.062-.103-.102-.153-1.749-2.138-5.073.574-3.322 2.715a2.175 2.175 0 0 0 3.793-1.18l2.389-.71-3.236 6.134a.716.716 0 0 0 .078.786.73.73 0 0 0 .221.18.713.713 0 0 0 .965-.298l3.889-7.371 6.37-1.893-3.065 6.349a.713.713 0 0 0 .058.723l.32.453a.252.252 0 0 0 .031.042.715.715 0 0 0 .724.242l6.829-1.685-3.252 6.002-8.093 1.997a.714.714 0 0 0-.522.867.695.695 0 0 0 .14.28.713.713 0 0 0 .725.241l6.828-1.685-1.042 1.926c-1.65-.193-3.354 1.807-1.994 3.471 1.749 2.137 5.073-.575 3.322-2.716-.021-.028-.049-.047-.072-.072l1.044-1.926 2.318 6.638a.715.715 0 1 0 1.35-.47l-2.746-7.869 3.252-6.003 2.318 6.64a.715.715 0 0 0 1.132.314l.415-.345a.739.739 0 0 0 .14-.158l3.776-5.773 1.963 6.603-4.439 6.785a.713.713 0 0 0 .045.844.684.684 0 0 0 .162.146.713.713 0 0 0 .99-.209l3.775-5.77.72 2.421a2.03 2.03 0 0 0-.386 2.987c1.749 2.14 5.074-.575 3.323-2.715a1.953 1.953 0 0 0-1.592-.772l-.733-2.46 6.348 3.349a.716.716 0 0 0 .967-.3m-3.949-9.97-6.432-3.395-2.277-7.665 7.215 3.91Zm5.914-10.622-6.884 2.129-7.058-3.824 7.804-2.32Zm-3.327-11.693-3.347 6.344-7.676 2.282 3.863-7.128Zm-10.743-6.309 2.247 7.266-3.786 6.987-2.33-7.845Zm-11.943 3.498 6.672 3.218 2.362 7.945-7.248-3.927Zm-5.964 10.949 7.054-2.463 7.263 3.935-7.963 2.367Zm3.525 11.961 3.26-6.757 7.938-2.36-3.973 7.334Zm10.817 5.585-2.333-6.687 3.973-7.335 2.353 7.918Z"></path><path fill="#e4ebf1" d="M330.007 92.553a1.796 1.796 0 0 0 0-3.59 1.796 1.796 0 0 0 0 3.59M218.429 220.035a1.796 1.796 0 0 0 0-3.59 1.796 1.796 0 0 0 0 3.59M529.09 141.992a1.796 1.796 0 0 0 0-3.59 1.796 1.796 0 0 0 0 3.59M252.251 108.517c4.62 0 4.628-7.18 0-7.18-4.619 0-4.627 7.18 0 7.18M437.743 97.38c4.62 0 4.628-7.18 0-7.18-4.619 0-4.627 7.18 0 7.18M140.78 364.989c4.62 0 4.627-7.18 0-7.18-4.62 0-4.628 7.18 0 7.18M568.883 287.274c4.62 0 4.627-7.18 0-7.18-4.62 0-4.628 7.18 0 7.18"></path><path fill="#fff" d="M360.364 186.795c4.62 0 4.627-7.18 0-7.18-4.62 0-4.628 7.18 0 7.18M154.339 220.403c4.62 0 4.627-7.18 0-7.18-4.62 0-4.628 7.18 0 7.18M317.696 212.796c4.62 0 4.627-7.18 0-7.18-4.62 0-4.628 7.18 0 7.18M200.995 176.458c4.62 0 4.628-7.18 0-7.18-4.619 0-4.627 7.18 0 7.18"></path><path fill="#e4ebf1" d="M368.676 63.39c4.619 0 4.627-7.179 0-7.179-4.62 0-4.627 7.18 0 7.18M539.284 202.417c4.62 0 4.628-7.18 0-7.18-4.62 0-4.627 7.18 0 7.18M150.872 287.274c4.618 0 4.627-7.18 0-7.18-4.62 0-4.628 7.18 0 7.18"></path><path fill="#afc4db" d="M365.01 371.866c4.618 0 4.627-7.18 0-7.18-4.62 0-4.628 7.18 0 7.18"></path><path fill="#e4ebf1" d="M137.312 183.205c4.62 0 4.627-7.18 0-7.18-4.62 0-4.627 7.18 0 7.18M530.825 349.373c4.619 0 4.627-7.18 0-7.18-4.62 0-4.627 7.18 0 7.18"></path><path fill="#fff" d="M363.831 243.66c4.619 0 4.627-7.18 0-7.18-4.619 0-4.627 7.18 0 7.18M340.828 106.956a1.687 1.687 0 0 0 0-3.373 1.687 1.687 0 0 0 0 3.373"></path><path fill="#fff" d="M359.558 241.953c4.34 0 4.346-6.746 0-6.746-4.34 0-4.348 6.746 0 6.746"></path><path fill="#303443" d="m210.095 487.156 26.263-48.6 7.912 4.275-26.263 48.6zM420.46 444.68l7.61-4.792 29.597 47.01-7.61 4.791z"></path><path fill="#303443" d="M493.891 493.789H163.37a4.497 4.497 0 1 1 0-8.994H493.89c13.615 0 24.007-3.92 30.886-11.65 12.168-13.676 9.843-34.899 9.818-35.112a4.377 4.377 0 0 1-.03-.522 15.334 15.334 0 0 0-30.667 0v3.304a4.497 4.497 0 1 1-8.995 0v-3.304a24.328 24.328 0 0 1 48.655-.252c.293 2.906 2.105 25.943-12.062 41.864-8.66 9.732-21.31 14.666-37.605 14.666Z"></path><path fill="#f15b43" d="m279.051 418.722.115-56.91 169.949.343-.115 56.91z"></path><path fill="#65cade" d="m279.102 393.137.028-13.535 169.948.342-.027 13.535z"></path><path fill="#f6978f" d="M425.36 405.985a9.615 9.615 0 0 0 4.036-3.5c.787-1.23 1.782-2.78 1.177-3.895-.714-1.313-3.193-1.18-4.416-.919a6.58 6.58 0 0 0-4.686 4.02c-.593 1.548-.87 4.144.38 4.938.892.566 2.18-.03 3.51-.644M431.442 407.024q-.512 2.22-1.193 4.393c-.623 1.988-3.757 1.133-3.13-.87q.682-2.173 1.192-4.392c.469-2.037 3.6-1.168 3.131.869"></path><path fill="#65cade" d="m308.145 418.782.113-56.91 13.534.027-.113 56.91z"></path><path fill="#cf2633" d="M419.1 362.095s-75.882 7.13-97.342 17.594l-2.87-.006.035-17.79Z"></path><path fill="#46c2cc" d="m318.888 379.682.035-17.789 2.87.006-.035 17.789z"></path><path fill="#303443" d="m322.013 418.81-.67-.003.116-56.908.67.002-.116 56.909zM432.013 382.993l-20.287-.04.002-.67 20.288.041-.003.669z"></path><path fill="#fff" d="M368.676 187.643a1.005 1.005 0 0 0 0-2.01 1.005 1.005 0 0 0 0 2.01"></path><path fill="#82c56d" d="m318.924 181.032.155-76.789 100.176.203-.155 76.789z"></path><path fill="#4da258" d="M331.692 104.269s27.113 75.256 87.43 66.023l-.022 10.942-100.176-.202.154-76.788Z"></path><path fill="#ffcc5d" d="m225.01 361.707.064-31.963 210.097.423-.065 31.963z"></path><path fill="#65cade" d="m213.38 329.72.048-23.776 232.316.467-.048 23.776z"></path><path fill="#ffcc5d" d="m316.722 306.152.138-68.214 150.46.303-.138 68.214z"></path><path fill="#f15b43" d="m279.05 237.861.115-56.91 169.95.343-.116 56.91z"></path><path fill="#f39821" d="m316.854 240.808.006-2.869 132.139.266-.006 2.869z"></path><path fill="#f39821" d="m316.854 240.808.006-2.869 132.139.266-.006 2.869z"></path><path fill="#65cade" d="m279.102 212.276.027-13.534 169.949.343-.027 13.534z"></path><path fill="#82c56d" d="m428.813 306.278-10.636-.023 18.067-68.176 10.636.021-18.067 68.178z"></path><path fill="#4da258" d="m446.12 240.968-10.635-.023.76-2.865 10.635.02-.76 2.868z"></path><path fill="#82c56d" d="m467.22 287.497-150.41-24.471.021-10.418 150.41 24.47-.021 10.419z"></path><path fill="#46c2cc" d="m438.728 306.397-155.966 23.464-69.381-.141.048-23.776 225.299.453z"></path><path fill="#f39821" d="m281.92 361.821.051-25.725 153.188.308.012-6.236-210.097-.423-.013 6.625 46.386.094-.052 25.336 10.525.021z"></path><path fill="#a5ddea" d="M424.61 320.038a9.607 9.607 0 0 0 4.036-3.5c.788-1.23 1.783-2.782 1.178-3.897-.714-1.313-3.193-1.18-4.416-.918a6.58 6.58 0 0 0-4.686 4.02c-.594 1.547-.87 4.144.38 4.937.892.567 2.18-.028 3.509-.642M430.692 321.075q-.51 2.22-1.191 4.393c-.623 1.989-3.758 1.133-3.131-.87q.683-2.173 1.192-4.392c.47-2.037 3.6-1.168 3.13.87"></path><path fill="#feecaa" d="M410.957 350.276a9.615 9.615 0 0 0 4.035-3.499c.787-1.23 1.782-2.783 1.177-3.897-.712-1.313-3.191-1.18-4.416-.918a6.58 6.58 0 0 0-4.686 4.02c-.592 1.547-.869 4.143.38 4.937.893.566 2.181-.03 3.51-.643M417.039 351.314q-.513 2.22-1.193 4.393c-.623 1.989-3.758 1.133-3.13-.87q.683-2.173 1.191-4.392c.47-2.037 3.6-1.168 3.132.87"></path><path fill="#f6978f" d="M425.36 214.414a9.615 9.615 0 0 0 4.036-3.5c.787-1.23 1.782-2.782 1.177-3.896-.714-1.313-3.193-1.18-4.416-.918a6.578 6.578 0 0 0-4.686 4.019c-.593 1.548-.87 4.144.38 4.937.892.566 2.18-.029 3.51-.642M431.442 215.452q-.512 2.22-1.193 4.393c-.623 1.989-3.757 1.133-3.13-.87q.682-2.173 1.192-4.392c.469-2.037 3.6-1.168 3.131.87"></path><path fill="#bcda86" d="M409.46 117.141a9.6 9.6 0 0 0 4.036-3.5c.788-1.23 1.783-2.781 1.178-3.895-.714-1.314-3.193-1.18-4.416-.919a6.578 6.578 0 0 0-4.686 4.02c-.594 1.547-.87 4.143.38 4.937.892.566 2.18-.03 3.509-.643M415.542 118.18q-.51 2.219-1.192 4.392c-.623 1.989-3.757 1.133-3.13-.869q.682-2.174 1.192-4.392c.469-2.038 3.599-1.169 3.13.869"></path><path fill="#fff" d="M317.377 142.635a1.624 1.624 0 0 0 1.621 1.627l48.028.096a13.62 13.62 0 0 0-6.116 11.804.811.811 0 0 0 .802.822h.007a.812.812 0 0 0 .814-.802 12.284 12.284 0 0 1 7.705-11.817l4.045.009-.074 36.77a1.624 1.624 0 0 0 3.248.007l.073-36.106c4.558 4.327 4.56 11.08 4.558 11.16a.813.813 0 0 0 .803.821h.006a.812.812 0 0 0 .814-.801c.005-.349.022-7.09-4.515-11.841l39.978.08a1.624 1.624 0 1 0 .007-3.248l-34.862-.07a34.701 34.701 0 0 0 13.731-11.898c1.16-1.834 3.877-6.124 2.074-8.81-.866-1.293-2.582-1.952-4.987-1.93-1.62.02-3.977.489-7.85 3.966-2.236 2.01-4.056 4.149-8.354 10.876l-1.385 2.171.064-31.16a1.625 1.625 0 0 0-3.25-.007l-.063 32.36a469.528 469.528 0 0 0-3.18-3.307c-5.553-5.736-7.764-7.47-10.353-8.991-4.49-2.639-6.895-2.626-8.485-2.323-2.354.45-3.91 1.447-4.501 2.885-1.232 2.992 2.285 6.656 3.787 8.22a33.399 33.399 0 0 0 12.617 7.908l-45.18-.091a1.623 1.623 0 0 0-1.627 1.62m56.916-3.545-.003 2.025-.005.01-3.913-.008c-5.186-.925-12.575-3.777-17.633-9.045-1.172-1.22-4.285-4.462-3.457-6.477.362-.879 1.566-1.575 3.303-1.908 1.313-.248 3.335-.234 7.358 2.129 2.462 1.445 4.587 3.12 10.01 8.72 1.672 1.727 3.222 3.327 4.34 4.554m5.902 2.047-2.54-.005a1.532 1.532 0 0 0-.116-.451l.005-2.095c.778-1.263 1.738-2.766 2.757-4.36 4.197-6.57 5.948-8.635 8.07-10.542 3.47-3.118 5.45-3.536 6.786-3.552h.143c1.697.003 2.96.441 3.475 1.211 1.212 1.807-1.191 5.606-2.096 7.035-4.183 6.606-11.535 11.038-16.484 12.76"></path><path fill="#e4ebf1" d="M374.25 160.502q1.59 1.029 3.245 1.984l-.037 18.665-3.25-.007ZM319.004 141.014l34.062.069q1.337 1.636 2.761 3.253l-36.829-.074ZM362.533 156.182a.812.812 0 0 1-.814.802h-.007a.811.811 0 0 1-.802-.822 15.604 15.604 0 0 1 .998-5.486q.638.61 1.29 1.211a14.578 14.578 0 0 0-.665 4.295"></path><path fill="#f15b43" d="M401.175 262.341s-9.85-4.627-19.186-4.564c-9.338.065-19.87-2.204-34.026-9.423l6.964-1.598-1.654-7.261s12.97 9.321 27.428 9.882c14.459.562 19.698 2.387 21.611 3.292Z"></path><path fill="#cf2633" d="M401.175 262.341s-1.797-.843-4.577-1.803c-.13-.426-.239-.847-.34-1.254-.854-3.42.677-3.755 2.8-7.748a19.245 19.245 0 0 1 3.254 1.133Z"></path><path fill="#f15b43" d="M457.48 280.228s10.7 1.991 18.245 7.491c7.543 5.503 17.42 9.807 33.13 12.207l-4.724-5.363 5.58-4.931s-15.97 0-28.038-7.981c-12.07-7.983-17.39-9.558-19.473-9.939Z"></path><path fill="#cf2633" d="M462.2 271.712a23.38 23.38 0 0 1 5.157 1.741c-.187 3.012.21 4.141-2.064 6.068a12.535 12.535 0 0 1-2.867 1.966c-2.915-.881-4.945-1.259-4.945-1.259Z"></path><path fill="#f15b43" d="M427.34 255.542s-6.67-11.493-13.806-14.201c-7.137-2.71-6.549.252-9.321 7.265s-5.219 6.637-4.188 10.768 2.664 9.587 22.346 9.045c19.684-.54 4.97-12.877 4.97-12.877"></path><path fill="#cf2633" d="M419.356 248.604c-.062-.057-6.103-5.638-9.81-5.638h-.094l-.01-.397h.105c3.862 0 9.825 5.507 10.079 5.743ZM401.772 263.31c3.896-8.386 20.633 5.027 20.633 5.027-13.543.372-18.514-2.102-20.633-5.026"></path><path fill="#f15b43" d="M442.62 260.464s12.123-5.44 19.5-3.475 5.171 4.027 3.33 11.34c-1.843 7.313.364 8.434-2.885 11.188-3.248 2.753-7.757 6.23-23.426-5.697-15.667-11.926 3.481-13.356 3.481-13.356"></path><path fill="#cf2633" d="M458.811 281.681c1.33-6.97-10.98-7.93-16.774-8-1.755-.02-2.914.041-2.914.041 10.78 8.205 16.261 9.097 19.688 7.959M444.538 265.082a10.479 10.479 0 0 0 6.066 1.314 42.085 42.085 0 0 0-5.036 1.86c-.939.584-.031.945 3.045 2.413 0 0-5.303-1.059-7.551 1.545ZM423.476 258.299a10.492 10.492 0 0 1-5.692-2.473 42.211 42.211 0 0 1 3.002 4.448c.421 1.023-.526.786-3.88.183 0 0 4.923 2.234 5.23 5.66Z"></path><path fill="#f15b43" d="M434.343 272.722s2.195 4.5-.88 15.318c0 0 1.303.829 4.453-2.593a11.955 11.955 0 0 1 2.796 4.246s3.264-10.855-.507-16.798Z"></path><path fill="#cf2633" d="m440.438 286.353-.391-.074c.01-.06 1.14-6.085-.036-8.15l.347-.197c1.246 2.192.128 8.168.08 8.421Z"></path><path fill="#f15b43" d="M428.053 270.606s-4.372 2.442-8.027 13.078c0 0-1.543-.064-2.174-4.672a11.957 11.957 0 0 0-4.72 1.887s3.52-10.773 10.011-13.498Z"></path><path fill="#cf2633" d="m415.63 278.477-.365-.163c.105-.235 2.6-5.778 4.876-6.867l.17.359c-2.143 1.026-4.658 6.615-4.682 6.67ZM423.143 267.401l4.91 3.206a10.445 10.445 0 0 0-2.551 2.44 3.404 3.404 0 0 1-2.166-.865 6.01 6.01 0 0 1-1.792-3.914 9.706 9.706 0 0 1 1.599-.867M440.205 272.895a9.945 9.945 0 0 1 .947 1.974 6.005 6.005 0 0 1-2.75 1.55 4.516 4.516 0 0 1-3.39-.63 9.81 9.81 0 0 0-.67-3.067Z"></path><path fill="#f15b43" d="M438.406 273.79c2.703-.628 4.203-3.263 4.748-4.221.635-1.117 2.128-3.743 1.018-6.347a5.136 5.136 0 0 0-3.34-3.026c-1.052-.22-1.353.238-2.904.09a8.321 8.321 0 0 1-3.255-1.047c-2.208-1.204-3.182-2.29-4.76-3.074a4.187 4.187 0 0 0-4.417.323c-3.247 1.695-3.763 5.414-3.892 6.345-.085.614-.64 4.61 1.738 6.72 1.384 1.23 2.398.606 5.916 1.393 5.497 1.229 6.343 3.494 9.148 2.843"></path><path fill="#cf2633" d="M421.312 268.439c-12.427.21-17.296-2.078-19.456-4.829l-.084-.3 19.772 4.96ZM458.811 281.681l.217.07c-3.249 1.152-8.364.488-18.238-6.703l1.245-.408 9.557 3.829Z"></path><path fill="#f15b43" d="M401.175 262.341s-9.85-4.627-19.186-4.564c-9.338.065-19.87-2.204-34.026-9.423l6.964-1.598-1.654-7.261s12.97 9.321 27.428 9.882c14.459.562 19.698 2.387 21.611 3.292Z"></path><path fill="#cf2633" d="m353.589 240.881-.316-1.386s.769.55 2.131 1.39ZM401.175 262.341s-1.797-.843-4.577-1.803c-.13-.426-.239-.847-.34-1.254-.854-3.42.677-3.755 2.8-7.748a19.245 19.245 0 0 1 3.254 1.133Z"></path><path fill="#f15b43" d="M457.48 280.228s10.7 1.991 18.245 7.491c7.543 5.503 17.42 9.807 33.13 12.207l-4.724-5.363 5.58-4.931s-15.97 0-28.038-7.981c-12.07-7.983-17.39-9.558-19.473-9.939Z"></path><path fill="#cf2633" d="M462.2 271.712a23.38 23.38 0 0 1 5.157 1.741c-.187 3.012.21 4.141-2.064 6.068a12.535 12.535 0 0 1-2.867 1.966c-2.915-.881-4.945-1.259-4.945-1.259Z"></path><path fill="#f15b43" d="M427.34 255.542s-6.67-11.493-13.806-14.201c-7.137-2.71-6.549.252-9.321 7.265s-5.219 6.637-4.188 10.768 2.664 9.587 22.346 9.045c19.684-.54 4.97-12.877 4.97-12.877"></path><path fill="#cf2633" d="m412.582 241-5.004-.01c.98-.838 2.406-.87 5.004.01M419.356 248.604c-.062-.057-6.103-5.638-9.81-5.638h-.094l-.01-.397h.105c3.862 0 9.825 5.507 10.079 5.743ZM401.772 263.31c3.896-8.386 20.633 5.027 20.633 5.027-13.543.372-18.514-2.102-20.633-5.026"></path><path fill="#f15b43" d="M442.62 260.464s12.123-5.44 19.5-3.475 5.171 4.027 3.33 11.34c-1.843 7.313.364 8.434-2.885 11.188-3.248 2.753-7.757 6.23-23.426-5.697-15.667-11.926 3.481-13.356 3.481-13.356"></path><path fill="#cf2633" d="M458.811 281.681c1.33-6.97-10.98-7.93-16.774-8-1.755-.02-2.914.041-2.914.041 10.78 8.205 16.261 9.097 19.688 7.959M444.538 265.082a10.479 10.479 0 0 0 6.066 1.314 42.085 42.085 0 0 0-5.036 1.86c-.939.584-.031.945 3.045 2.413 0 0-5.303-1.059-7.551 1.545ZM423.476 258.299a10.492 10.492 0 0 1-5.692-2.473 42.211 42.211 0 0 1 3.002 4.448c.421 1.023-.526.786-3.88.183 0 0 4.923 2.234 5.23 5.66Z"></path><path fill="#f15b43" d="M434.343 272.722s2.195 4.5-.88 15.318c0 0 1.303.829 4.453-2.593a11.955 11.955 0 0 1 2.796 4.246s3.264-10.855-.507-16.798Z"></path><path fill="#cf2633" d="m440.438 286.353-.391-.074c.01-.06 1.14-6.085-.036-8.15l.347-.197c1.246 2.192.128 8.168.08 8.421Z"></path><path fill="#f15b43" d="M428.053 270.606s-4.372 2.442-8.027 13.078c0 0-1.543-.064-2.174-4.672a11.957 11.957 0 0 0-4.72 1.887s3.52-10.773 10.011-13.498Z"></path><path fill="#cf2633" d="m415.63 278.477-.365-.163c.105-.235 2.6-5.778 4.876-6.867l.17.359c-2.143 1.026-4.658 6.615-4.682 6.67ZM423.143 267.401l4.91 3.206a10.445 10.445 0 0 0-2.551 2.44 3.404 3.404 0 0 1-2.166-.865 6.01 6.01 0 0 1-1.792-3.914 9.706 9.706 0 0 1 1.599-.867M440.205 272.895a9.945 9.945 0 0 1 .947 1.974 6.005 6.005 0 0 1-2.75 1.55 4.516 4.516 0 0 1-3.39-.63 9.81 9.81 0 0 0-.67-3.067Z"></path><path fill="#f15b43" d="M438.406 273.79c2.703-.628 4.203-3.263 4.748-4.221.635-1.117 2.128-3.743 1.018-6.347a5.136 5.136 0 0 0-3.34-3.026c-1.052-.22-1.353.238-2.904.09a8.321 8.321 0 0 1-3.255-1.047c-2.208-1.204-3.182-2.29-4.76-3.074a4.187 4.187 0 0 0-4.417.323c-3.247 1.695-3.763 5.414-3.892 6.345-.085.614-.64 4.61 1.738 6.72 1.384 1.23 2.398.606 5.916 1.393 5.497 1.229 6.343 3.494 9.148 2.843"></path><path fill="#cf2633" d="M421.312 268.439c-12.427.21-17.296-2.078-19.456-4.829l-.084-.3 19.772 4.96ZM458.811 281.681l.217.07c-3.249 1.152-8.364.488-18.238-6.703l1.245-.408 9.557 3.829Z"></path><path fill="#65cade" d="m308.145 237.921.114-56.91 13.534.027-.114 56.91z"></path><path fill="#f15b43" d="m255.891 361.77.11-55.74 21.655.043-.11 55.74z"></path><path fill="#cf2633" d="M275.815 316.52a10.562 10.562 0 0 1 1.816 2.582l-.023 11.248a7.456 7.456 0 0 0-1.422-1.075c-2.369 4.001-3.816 3.462-3.816 3.462.758-11.222-2.323-15.167-2.323-15.167ZM255.97 322.61a13.465 13.465 0 0 1 2.862-6.08l5.805.827s-2.928 4.06-1.741 15.244c0 0-1.425.594-3.946-3.315a11.096 11.096 0 0 0-3.001 3.03Z"></path><path fill="#cf2633" d="M270.047 317.57a20.591 20.591 0 0 0-5.41-.213c-2.43.329-8.65-3.63-8.65-3.63l13.186-4.647 8.075 4.26s-1.963 5.302-4.243 5.38c-2.28.079-2.958-1.15-2.958-1.15"></path><path fill="#f15b43" d="M258.84 299.848s-9.825-8.887-17.425-9.293c-7.601-.404-6.144 2.23-6.647 9.733-.501 7.501-2.938 7.887-.704 11.497s5.44 8.293 23.968 1.803c18.529-6.493.807-13.74.807-13.74"></path><path fill="#f6978f" d="M249.116 295.72c-.076-.035-7.663-3.57-11.15-2.353l-.13-.376c3.647-1.273 11.133 2.221 11.45 2.37Z"></path><path fill="#f15b43" d="M274.845 299.881s9.86-8.848 17.462-9.222 6.134 2.253 6.606 9.759c.472 7.503 2.907 7.898.659 11.499s-5.473 8.27-23.975 1.706c-18.502-6.567-.752-13.742-.752-13.742"></path><path fill="#cf2633" d="M278.122 303.744a10.482 10.482 0 0 0 6.177-.595 42.135 42.135 0 0 0-4.23 3.304c-.715.842.259.91 3.636 1.372 0 0-5.373.606-6.72 3.77ZM255.993 303.7a10.482 10.482 0 0 1-6.174-.622 41.979 41.979 0 0 1 4.216 3.322c.713.846-.262.91-3.64 1.357 0 0 5.369.629 6.703 3.798Z"></path><path fill="#f15b43" d="M270.74 314.127s3.46 3.619 3.826 14.858c0 0 1.495.392 3.453-3.826a11.951 11.951 0 0 1 3.955 3.19s-.198-11.33-5.6-15.842Z"></path><path fill="#f6978f" d="M280.302 325.3c-.008-.06-.769-6.142-2.516-7.752l.27-.292c1.854 1.708 2.609 7.74 2.64 7.997Z"></path><path fill="#f15b43" d="M264.104 314.028s-3.422 3.657-3.662 14.901c0 0-1.489.41-3.493-3.788a11.943 11.943 0 0 0-3.922 3.236s.071-11.333 5.424-15.906Z"></path><path fill="#f15b43" d="M264.104 314.028s-3.422 3.657-3.662 14.901c0 0-1.489.41-3.493-3.788a11.943 11.943 0 0 0-3.922 3.236s.071-11.333 5.424-15.906Z"></path><path fill="#f6978f" d="m254.667 325.31-.395-.044c.029-.256.714-6.298 2.55-8.026l.273.29c-1.73 1.628-2.421 7.718-2.428 7.78Z"></path><path fill="#cf2633" d="M257.499 313.414a9.308 9.308 0 0 1 .952-.943l5.653 1.557a9.195 9.195 0 0 0-1.335 2.264 3.652 3.652 0 0 1-2.574-.108 5.746 5.746 0 0 1-2.696-2.77M276.374 312.506a9.631 9.631 0 0 1 1.263 1.288 5.714 5.714 0 0 1-1.849 1.837c-1.31.782-2.352.611-3.876.357a8.39 8.39 0 0 0-1.173-1.862Z"></path><path fill="#f15b43" d="M274.89 313.816c2.377-1.418 3-4.376 3.227-5.45.263-1.254.884-4.2-.96-6.336a5.115 5.115 0 0 0-4.091-1.86c-1.066.11-1.213.637-2.73.969a8.328 8.328 0 0 1-3.41-.007c-2.463-.472-3.719-1.207-5.456-1.473a4.178 4.178 0 0 0-4.095 1.648c-2.568 2.596-1.93 6.284-1.769 7.208.105.608.793 4.572 3.691 5.854 1.69.747 2.462-.154 6.043-.475 5.592-.502 7.085 1.393 9.55-.078"></path><path fill="#cf2633" d="M275.597 313.623s.276-.105.749-.269a1.202 1.202 0 0 1 .028-.848c.971-.354 6.356-.969 6.356-.969v.001c5.884-1.307 13.372-1.84 14.044 3.668-2.709 1.976-7.649 2.817-18.566-.702v.005l-1.436-.375.075-.085c-.415-.14-.817-.272-1.25-.426M236.849 315.085c.662-5.258 7.52-4.98 13.257-3.784l-.004-.002s5.297 1.1 7.56 1.861v.29l.37.136c-.128.047-.245.083-.372.126v.005l-.693.237-.015-.003c-12.004 4.05-17.279 3.21-20.103 1.134M419.1 181.234s-75.882 7.13-97.342 17.593l-2.87-.004.035-17.791Z"></path><path fill="#46c2cc" d="m318.888 198.822.035-17.79 2.87.006-.035 17.79z"></path><path fill="#303443" d="m362.073 144.731-26.755-.055.003-.669 26.754.054-.002.67zM322.013 237.949l-.67-.002.116-56.91.67.002-.116 56.91zM347.537 268.364l.106-.66 57.877 9.247-.105.66zM342.474 321.217l-.099-.664 27.471-4.133.099.663-27.471 4.134zM282.255 361.822l-.67-.002.052-26.06 11.698.024-.002.67-11.027-.022-.051 25.39zM409.044 171.641a56.686 56.686 0 0 1-16.294-2.391l.193-.641a52.916 52.916 0 0 0 26.094 1.359l.171.648a44.737 44.737 0 0 1-10.164 1.025ZM432.013 202.132l-20.287-.04.002-.67 20.288.04-.003.67z"></path><path fill="#f15b43" d="m483.424 387.381-9.913 29.728c-8.616 25.836-28.545 43.552-55.768 42.767l-161.186-4.642A73.407 73.407 0 0 1 186.2 393.55l-9.612-59.572s50.77-2.935 87.083 18.624 55.042 67.831 55.042 67.831l90.343 7.714s30.298-31.95 74.367-40.765"></path><path fill="#cf2633" d="M304.044 455.234a73.406 73.406 0 0 1-70.356-61.685l-8.936-55.395a202.987 202.987 0 0 0-48.162-4.177l9.611 59.572a73.405 73.405 0 0 0 70.356 61.685l161.187 4.643a56.233 56.233 0 0 0 12.491-1.009Z"></path><path fill="#fff" d="M409.058 440.388c-.348 0-.694-.016-1.042-.045l-90.342-7.712a12.242 12.242 0 0 1-10.542-8.235 114.914 114.914 0 0 0-105.807-77.417l-34.372-.763a12.241 12.241 0 0 1 .267-24.48l.278.003 34.369.763a139.531 139.531 0 0 1 125.587 86.39l77.707 6.636c12.908-10.193 53.882-39.92 93.93-40.934a12.24 12.24 0 1 1 .619 24.473c-38.713.98-82.242 37.99-82.677 38.366a12.25 12.25 0 0 1-7.975 2.955"></path><path fill="#d4e5f0" d="M503.957 375.454a12.237 12.237 0 0 1-11.899 11.372c-38.712.98-82.239 37.99-82.676 38.365a12.246 12.246 0 0 1-7.976 2.955c-.346 0-.692-.015-1.04-.045l-90.344-7.712a12.225 12.225 0 0 1-4.972-1.54c.733 1.828 1.44 3.67 2.083 5.547a12.24 12.24 0 0 0 10.54 8.234l90.343 7.713c.348.03.695.045 1.042.045a12.25 12.25 0 0 0 7.976-2.955c.435-.375 43.963-37.385 82.676-38.366a12.25 12.25 0 0 0 4.247-23.613"></path><path fill="#edf2fa" d="M321.794 396.821a138.41 138.41 0 0 0-9.08-14.897 137.638 137.638 0 0 1 7.089 14.728Z"></path><path fill="#d4e5f0" d="m193.673 334.737-34.37-.762a12.193 12.193 0 0 1-4.272-.883c-.015.205-.04.406-.044.614a12.242 12.242 0 0 0 11.966 12.51l34.372.763a114.953 114.953 0 0 1 90.642 48.023 114.992 114.992 0 0 0-98.294-60.265"></path><path fill="#f7f7f7" d="M187.607 365.99c2.954 0 2.96-4.591 0-4.591-2.953 0-2.959 4.59 0 4.59M226.72 366.54c2.953 0 2.957-4.591 0-4.591-2.955 0-2.96 4.591 0 4.591M211.846 378.66c2.953 0 2.958-4.591 0-4.591-2.955 0-2.96 4.59 0 4.59"></path><path fill="#fff" d="M255.364 397.94c2.954 0 2.96-4.59 0-4.59-2.953 0-2.959 4.59 0 4.59"></path><path fill="#f7f7f7" d="M231.677 426.033c2.954 0 2.959-4.59 0-4.59-2.954 0-2.96 4.59 0 4.59M211.846 417.294c2.953 0 2.958-4.59 0-4.59-2.955 0-2.96 4.59 0 4.59M227.556 444.764c2.955 0 2.96-4.592 0-4.592-2.953 0-2.958 4.592 0 4.592"></path><path fill="#fff" d="M254.47 378.567c2.953 0 2.958-4.59 0-4.59-2.955 0-2.96 4.59 0 4.59M254.263 424.932c2.953 0 2.958-4.59 0-4.59-2.955 0-2.96 4.59 0 4.59M280.704 422.178c2.954 0 2.96-4.59 0-4.59-2.953 0-2.959 4.59 0 4.59"></path><path fill="#f7f7f7" d="M204.133 402.53c8.861 0 8.877-13.772 0-13.772-8.862 0-8.876 13.772 0 13.772"></path><path fill="#fff" d="M229.473 385.453c8.861 0 8.877-13.772 0-13.772-8.862 0-8.876 13.772 0 13.772"></path><path fill="#f0efef" d="M229.473 385.453a7.002 7.002 0 0 0 2.819-.562l-2.12-13.14c-.235-.02-.45-.07-.699-.07-8.862 0-8.876 13.772 0 13.772"></path><path fill="#f7f7f7" d="M234.982 414.65c8.862 0 8.876-13.772 0-13.772-8.861 0-8.877 13.771 0 13.771"></path><path fill="#f0efef" d="M234.982 414.65a6.353 6.353 0 0 0 4.629-1.817 73.153 73.153 0 0 1-4.333-11.927c-.102-.003-.19-.028-.296-.028-8.862 0-8.877 13.771 0 13.771"></path><path fill="#f7f7f7" d="M259.771 449.354c8.862 0 8.876-13.772 0-13.772-8.861 0-8.877 13.772 0 13.772"></path><path fill="#f0efef" d="M266.338 443.509a73.591 73.591 0 0 1-9.511-7.313c-5.775 2.665-4.804 13.158 2.944 13.158a6.384 6.384 0 0 0 6.567-5.845M206.336 363.97c8.862 0 8.878-13.772 0-13.772-8.861 0-8.876 13.771 0 13.771"></path></svg>