<svg xmlns="http://www.w3.org/2000/svg" xmlns:xlink="http://www.w3.org/1999/xlink" data-name="Layer 1" viewBox="0 0 480 480" id="christmas-gift"><defs><linearGradient id="a" x1="329.46" x2="131.34" y1="390.88" y2="282.65" gradientUnits="userSpaceOnUse"><stop offset="0" stop-color="#f85032"></stop><stop offset="1" stop-color="#e73827"></stop></linearGradient><linearGradient id="b" x1="404.54" x2="154.14" y1="82.29" y2="259.77" gradientUnits="userSpaceOnUse"><stop offset="0" stop-color="#f53803"></stop><stop offset=".28" stop-color="#f55e0a"></stop><stop offset=".89" stop-color="#f5be1c"></stop><stop offset="1" stop-color="#f5d020"></stop></linearGradient><linearGradient id="c" x1="276.63" x2="692.12" y1="216.27" y2="431.58" xlink:href="#a"></linearGradient><linearGradient id="d" x1="166.8" x2="288.79" y1="357.18" y2="285.02" xlink:href="#b"></linearGradient><linearGradient id="e" x1="253.56" x2="211.37" y1="138.43" y2="179.94" xlink:href="#a"></linearGradient><linearGradient id="f" x1="237.78" x2="242.22" y1="115.11" y2="115.11" xlink:href="#a"></linearGradient><linearGradient id="g" x1="227.28" x2="237.35" y1="117.58" y2="117.58" xlink:href="#a"></linearGradient><linearGradient id="h" x1="242.65" x2="252.72" y1="117.58" y2="117.58" xlink:href="#a"></linearGradient></defs><rect width="250" height="60" x="115" y="312.01" fill="url(#a)"></rect><rect width="75" height="92.13" x="165" y="179.43" fill="url(#b)"></rect><rect width="80" height="77.17" x="240" y="179.43" fill="url(#c)"></rect><rect width="100" height="55.41" x="240" y="256.6" fill="url(#d)"></rect><rect width="1.5" height="55.41" x="289.25" y="256.6" fill="#fff"></rect><rect width="1.5" height="100" x="289.25" y="234.31" fill="#fff" transform="rotate(90 290 284.31)"></rect><path fill="#fff" d="M303.6,297.44c-.2,0-.41-.08-.56-.24-.11-.12-5.58-5.82-12.42-11.8-15.65-.35-24.31-4.54-25.06-12.13-.08-.83,.21-1.66,.8-2.26,.6-.62,1.43-.94,2.29-.88,11.31,.77,34.54,24.97,35.52,26,.3,.31,.28,.8-.03,1.1-.15,.14-.34,.22-.54,.22Zm-35.16-25.76c-.37,0-.72,.15-.98,.41-.27,.28-.4,.65-.36,1.03,.79,7.92,11.73,10.22,21.64,10.66-7.04-5.97-15.09-11.76-20.2-12.1-.03,0-.06,0-.09,0Z"></path><path fill="#fff" d="M275.86,297.22c-.31-.3-.32-.79-.03-1.1,.98-1.03,24.21-25.23,35.52-26,.86-.06,1.69,.26,2.29,.88,.59,.61,.88,1.43,.8,2.26-.75,7.59-9.42,11.78-25.06,12.13-6.84,5.98-12.31,11.68-12.42,11.8-.15,.16-.36,.24-.56,.24-.19,0-.39-.07-.54-.22Zm35.6-25.54c-5.12,.35-13.17,6.13-20.2,12.1,9.9-.44,20.85-2.75,21.64-10.66,.04-.38-.09-.75-.36-1.03-.26-.27-.61-.41-.98-.41-.03,0-.06,0-.09,0Z"></path><rect width="1.5" height="75" x="201.75" y="187.99" fill="#fff" transform="rotate(90 202.5 225.49)"></rect><rect width="1.5" height="92.13" x="201.75" y="179.43" fill="#fff" transform="rotate(180 202.5 225.495)"></rect><path fill="#fff" d="M216.1,239.15c-.2,0-.41-.08-.56-.24-.11-.12-5.58-5.82-12.42-11.8-15.65-.35-24.31-4.54-25.06-12.13-.08-.83,.21-1.66,.8-2.26,.6-.62,1.43-.94,2.29-.88,11.31,.77,34.54,24.97,35.52,26,.3,.31,.28,.8-.03,1.1-.15,.14-.34,.22-.54,.22Zm-35.16-25.76c-.37,0-.72,.15-.98,.41-.27,.28-.4,.65-.36,1.03,.79,7.92,11.73,10.22,21.64,10.66-7.04-5.97-15.09-11.76-20.2-12.1-.03,0-.06,0-.09,0Z"></path><path fill="#fff" d="M188.36,238.94c-.31-.3-.32-.79-.03-1.1,.98-1.03,24.21-25.23,35.52-26,.86-.06,1.69,.26,2.29,.88,.59,.61,.88,1.43,.8,2.26-.75,7.59-9.42,11.78-25.06,12.13-6.84,5.98-12.31,11.68-12.42,11.8-.15,.16-.36,.24-.56,.24-.19,0-.39-.07-.54-.22Zm35.6-25.54c-5.12,.35-13.17,6.13-20.2,12.1,9.9-.44,20.85-2.75,21.64-10.66,.04-.38-.09-.75-.36-1.03-.26-.27-.61-.41-.98-.41-.03,0-.06,0-.09,0Z"></path><rect width="100" height="40" x="140" y="271.56" fill="#bdbdbd"></rect><polygon fill="#fafafa" points="150 311.56 140 311.56 145 303.56 150 311.56"></polygon><polygon fill="#fafafa" points="160 311.56 150 311.56 155 303.56 160 311.56"></polygon><polygon fill="#fafafa" points="170 311.56 160 311.56 165 303.56 170 311.56"></polygon><polygon fill="#fafafa" points="180 311.56 170 311.56 175 303.56 180 311.56"></polygon><polygon fill="#fafafa" points="190 311.56 180 311.56 185 303.56 190 311.56"></polygon><polygon fill="#fafafa" points="200 311.56 190 311.56 195 303.56 200 311.56"></polygon><polygon fill="#fafafa" points="210 311.56 200 311.56 205 303.56 210 311.56"></polygon><polygon fill="#fafafa" points="220 311.56 210 311.56 215 303.56 220 311.56"></polygon><polygon fill="#fafafa" points="230 311.56 220 311.56 225 303.56 230 311.56"></polygon><polygon fill="#fafafa" points="240 311.56 230 311.56 235 303.56 240 311.56"></polygon><polygon fill="#fafafa" points="150 303.56 140 303.56 145 295.56 150 303.56"></polygon><polygon fill="#fafafa" points="160 303.56 150 303.56 155 295.56 160 303.56"></polygon><polygon fill="#fafafa" points="170 303.56 160 303.56 165 295.56 170 303.56"></polygon><polygon fill="#fafafa" points="180 303.56 170 303.56 175 295.56 180 303.56"></polygon><polygon fill="#fafafa" points="190 303.56 180 303.56 185 295.56 190 303.56"></polygon><polygon fill="#fafafa" points="200 303.56 190 303.56 195 295.56 200 303.56"></polygon><polygon fill="#fafafa" points="210 303.56 200 303.56 205 295.56 210 303.56"></polygon><polygon fill="#fafafa" points="220 303.56 210 303.56 215 295.56 220 303.56"></polygon><polygon fill="#fafafa" points="230 303.56 220 303.56 225 295.56 230 303.56"></polygon><polygon fill="#fafafa" points="240 303.56 230 303.56 235 295.56 240 303.56"></polygon><polygon fill="#fafafa" points="150 295.56 140 295.56 145 287.56 150 295.56"></polygon><polygon fill="#fafafa" points="160 295.56 150 295.56 155 287.56 160 295.56"></polygon><polygon fill="#fafafa" points="170 295.56 160 295.56 165 287.56 170 295.56"></polygon><polygon fill="#fafafa" points="180 295.56 170 295.56 175 287.56 180 295.56"></polygon><polygon fill="#fafafa" points="190 295.56 180 295.56 185 287.56 190 295.56"></polygon><polygon fill="#fafafa" points="200 295.56 190 295.56 195 287.56 200 295.56"></polygon><polygon fill="#fafafa" points="210 295.56 200 295.56 205 287.56 210 295.56"></polygon><polygon fill="#fafafa" points="220 295.56 210 295.56 215 287.56 220 295.56"></polygon><polygon fill="#fafafa" points="230 295.56 220 295.56 225 287.56 230 295.56"></polygon><polygon fill="#fafafa" points="240 295.56 230 295.56 235 287.56 240 295.56"></polygon><polygon fill="#fafafa" points="150 287.56 140 287.56 145 279.56 150 287.56"></polygon><polygon fill="#fafafa" points="160 287.56 150 287.56 155 279.56 160 287.56"></polygon><polygon fill="#fafafa" points="170 287.56 160 287.56 165 279.56 170 287.56"></polygon><polygon fill="#fafafa" points="180 287.56 170 287.56 175 279.56 180 287.56"></polygon><polygon fill="#fafafa" points="190 287.56 180 287.56 185 279.56 190 287.56"></polygon><polygon fill="#fafafa" points="200 287.56 190 287.56 195 279.56 200 287.56"></polygon><polygon fill="#fafafa" points="210 287.56 200 287.56 205 279.56 210 287.56"></polygon><polygon fill="#fafafa" points="220 287.56 210 287.56 215 279.56 220 287.56"></polygon><polygon fill="#fafafa" points="230 287.56 220 287.56 225 279.56 230 287.56"></polygon><polygon fill="#fafafa" points="240 287.56 230 287.56 235 279.56 240 287.56"></polygon><polygon fill="#fafafa" points="150 279.56 140 279.56 145 271.56 150 279.56"></polygon><polygon fill="#fafafa" points="160 279.56 150 279.56 155 271.56 160 279.56"></polygon><polygon fill="#fafafa" points="170 279.56 160 279.56 165 271.56 170 279.56"></polygon><polygon fill="#fafafa" points="180 279.56 170 279.56 175 271.56 180 279.56"></polygon><polygon fill="#fafafa" points="190 279.56 180 279.56 185 271.56 190 279.56"></polygon><polygon fill="#fafafa" points="200 279.56 190 279.56 195 271.56 200 279.56"></polygon><polygon fill="#fafafa" points="210 279.56 200 279.56 205 271.56 210 279.56"></polygon><polygon fill="#fafafa" points="220 279.56 210 279.56 215 271.56 220 279.56"></polygon><polygon fill="#fafafa" points="230 279.56 220 279.56 225 271.56 230 279.56"></polygon><polygon fill="#fafafa" points="240 279.56 230 279.56 235 271.56 240 279.56"></polygon><rect width="55.41" height="55.41" x="212.29" y="124.07" fill="url(#e)"></rect><rect width="2" height="55.41" x="239" y="124.07" fill="#fff"></rect><rect width="2" height="55.41" x="239" y="124.07" fill="#fff" transform="rotate(90 240 151.77)"></rect><path fill="url(#f)" d="M240,107.99c-3.28,4.69-2.62,9.45,0,14.25,2.62-4.8,3.28-9.56,0-14.25Z"></path><path fill="url(#g)" d="M227.28,112.54c1,5.64,4.83,8.53,10.07,10.07-1.54-5.24-4.44-9.08-10.07-10.07Z"></path><path fill="url(#h)" d="M252.72,112.54c-1,5.64-4.83,8.53-10.07,10.07,1.54-5.24,4.44-9.08,10.07-10.07Z"></path><rect width="480" height="480" fill="none"></rect></svg>