<svg xmlns="http://www.w3.org/2000/svg" enable-background="new 0 0 6000 4000" viewBox="0 0 6000 4000" id="santa-doing-skiing"><g><path fill="#dcdde0" d="M5186.1 2794.2c0 178.3-21.3 351.7-61.5 517.6H859.2c-40.1-166-61.4-339.3-61.4-517.6 0-180.4 21.7-355.7 62.8-523.4 17.4-71.3 38.4-141.2 62.6-209.5C1224.8 1209.8 2037.2 600 2991.9 600c742.4 0 1398.6 368.7 1795.6 932.8 44.9 63.7 86.4 129.9 124.3 198.3 174.8 315 274.3 677.4 274.3 1063.1z"></path><path fill="#e4e8ef" d="M4911.9 1731.2c-236 11.4-548.1 52-746 177.7-352.8 224.1-620.6 291-844.7 200.9-224.1-90.1-561.4-314.2-831.8-213.7-270.4 100.4-324.5 273-432.6 327-108.2 54.1-502.2 265.3-857.6 154.5 0 0-177.6-73.4-338.5-106.8 17.4-71.3 38.4-141.2 62.6-209.5 127.4 26.2 294 83.9 485.8 205.6 212.5 115.9 699.2-227.9 961.9-394 262.7-166.1 394-41.2 811.2 87.6 417.2 128.8 618.1 46.3 860.2-123.6 160.7-112.8 521.1-234.7 745.3-303.9 44.7 63.5 86.2 129.8 124.2 198.2z"></path><circle cx="3968.2" cy="1020" r="574.5" fill="#f3f8ff"></circle><path fill="#717583" d="M2832 2633.7s257.4-57.3 386.1-125.8 144.2-174.7 236.9-260.7c92.7-85.9 129.2-237.9 144.6-227.6 8.8 5.9 16.1-147.6 53.7-95 28.1 39.4 85.7 286.2 105.6 299.2 46.4 30.2 67 114.9 77.3 152.4s384.3 274.9 457.6 364.5 552.3 147.5 552.3 147.5 114.6 16.9 180.7 46.7c66.1 29.9 152.2 99.2 152.2 99.2s21.4 120.1-24.6 133.6-1225.9 145.4-1385.2 168c-159.2 22.6-983.8 0-983.8 0l46.6-702z"></path><path fill="#fff" stroke="#000" stroke-linecap="round" stroke-linejoin="round" stroke-miterlimit="10" stroke-width="2" d="M3524.3 2320.6c10.8-10.8 32.5-7.2 50.6 0 7.2 0 14.5 10.8 25.3 7.2 18.1-14.5 18.1-36.1 25.3-57.8 3.6-14.5 32.5-10.8 36.1-3.6 18.1 21.7 43.4 18.1 57.8 36.1 30.1 33.4 66.3 60.6 108.8 44.5-12.1-41.7-32.6-99.4-69.2-123.3-19.9-12.9-77.4-259.8-105.6-299.2-37.6-52.5-44.8 100.9-53.7 95-15.5-10.3-51.9 141.6-144.6 227.6-41.9 38.9-68.1 81.9-96 123.7 56.1 6.2 112.6-13.4 165.2-50.2z"></path><path fill="#5a5e6e" d="M4763.5 2916.7c-54.2-21.7-119.2-18.1-173.4 18.1-32.5 21.7-57.8 47-93.9 47-39.7 7.2-72.3 25.3-108.4 32.5-90.3 10.8-177 7.2-263.7 0-3.6 0-10.8-10.8-14.5-10.8-25.3-3.6-54.2-3.6-75.9-21.7-155.3-101.2-354-72.3-516.6-7.2-50.6 21.7-133.7 28.9-191.5-18.1-36.1-28.9-90.3-21.7-137.3-21.7-101.2-3.6-209.5-25.3-303.5 10.8-24.7 8.6-49.8 13.9-74.8 18.7l-24.6 371.4s824.5 22.6 983.8 0c159.2-22.6 1339.2-154.5 1385.2-168s24.6-133.6 24.6-133.6-2.1-1.7-5.8-4.6c-69.3-3.2-139.3-15.8-203.9-26.1-68.6-7.3-137.2-61.5-205.8-86.7z"></path><path fill="#717583" d="M885.8 3284.5s109.9-187.1 229.6-326.2 227.9-436.5 270.4-509.9c42.5-73.4 104.3-81.8 162.2-201.2 57.9-119.4 162.2-479 208.6-498.2 46.4-19.1 108.2 23.4 123.6 19.5 15.5-3.9 25.3 23.2 37.7 88.8 12.5 65.7 419.4 473.2 470.9 558.5 51.5 85.3 484.2 940.5 484.2 940.5H678.9c0 .1 173.4-73.1 206.9-71.8z"></path><path fill="#fff" d="M637.7 2823.1H1333s-42.5-86.3-148.1-38.6c-73.4-90.1-148.1-70.8-180.3-24.5-74.7-85-136.5-29.6-141.6 0-56.7-28.3-82.4-25.8-91.4-9-33.5 3.9-133.9 72.1-133.9 72.1z"></path><path fill="#5a5e6e" d="M678.9 3356.4h2194.2s-306.5-605.9-434.3-848.6c-24.2 18.3-50.2 34.4-77.7 47.5-32.5 14.5-79.5 7.2-115.6 25.3-101.2 47-205.9 72.3-307.1 130.1-83.1 50.6-133.7 130.1-216.8 187.9-57.8 39.7-108.4 75.9-166.2 112-18.1 14.5-25.3 39.7-39.7 50.6-7.2 7.2-28.9-10.8-36.1 0-25.3 21.7-28.9 61.4-54.2 79.5-7.2 3.6-18.1-3.6-28.9-10.8-39.7-25.3-47-79.5-101.2-90.3-39.7-7.2-61.4 28.9-97.5 36.1-14.5 3.6-28.9-7.2-43.4-3.6-14.5 7.2-21.7 28.9-36.1 39.7-28.9 14.5-50.6-18.1-65-25.3-10.1-4-20.8-6.7-31.9-8.1-77.6 107.4-135.7 206.1-135.7 206.1-33.4-1.3-206.8 71.9-206.8 71.9z"></path><path fill="#c1a39f" d="M1438.7 3069.1c-10.1-26.3 20.3-40.5 20.3-64.8 0-24.3-32.4-54.7-54.7-83.1-22.3-28.4 10.1-54.7 20.3-68.9s-42.6-60.8-48.6-79c-6.1-18.2 14.2-30.4 12.2-46.6-2-16.2-18.2-56.7-48.6-141.9-30.4-85.1-48.6-83.1-48.6-83.1l-18.2 164.1s-16.2 111.5-44.6 192.5c-28.4 81.1-8.1 40.5 22.3 48.6 30.4 8.1-8.1 42.6-26.3 77-18.2 34.5-8.1 62.8 10.1 56.7 18.2-6.1 12.2 32.4 8.1 56.7-4.1 24.3-62.8 56.7-56.7 66.9 6.1 10.1 93.2-10.1 93.2-10.1s21.9 5.8 49.9 9.6c3.5 43.1 13 160.7 13.4 170.2.5 11.7 17.7-5.6 17.7-5.6l-8.8-162.3c12.4.9 25.2 1.2 37.2.2 48.6-4.1 91.2-12.2 107.4-28.4 15.9-16-46.9-42.3-57-68.7z"></path><path fill="#fff" d="M1237.9 3030.2c6.1-16.3-11.2-25.3-19.3-34.4-8.5 23.6-3.5 42.2 7.4 45.2 4.6-2.7 8.8-6.1 11.9-10.8zM1235.1 3118.4c0-5.7 19.9 0 25.6-8.5 6.6-16.6-3.2-22.5-16.5-25.2-.7 4.5-1.4 8.8-2 12.8-4.1 24.3-62.8 56.7-56.7 66.9 1.8 3 10.8 3.3 22.5 2.3 14.2-10.1 24.5-25.1 27.1-48.3zM1235.1 2876.7c8.5 0 17.1-5.7 17.1-8.5 17.1-54 0-110.9 51.2-153.5 2.8-5.7 0-14.2-2.8-19.9-34.1-31.3-19.9-73.9-2.8-108 11.2-27-4.2-55.7-5.5-84.9-.9-.3-1.4-.2-1.4-.2l-18.2 164.1s-16.2 111.5-44.6 192.5c-18.2 52.1-16.4 54-4.6 50.8 8-6.7 12.9-16.4 11.6-32.4z"></path><path fill="#775e5c" d="M1438.7 3069.1c-10.1-26.3 20.3-40.5 20.3-64.8 0-24.3-32.4-54.7-54.7-83.1-22.3-28.4 10.1-54.7 20.3-68.9s-42.6-60.8-48.6-79c-6.1-18.2 14.2-30.4 12.2-46.6-2-16.2-18.2-56.7-48.6-141.9-17.6-49.3-31.1-69.3-39.4-77.5 12.2 59.3 36.3 115.7 45.9 176.1 2.8 31.3-8.5 62.5-2.8 93.8 0 5.7 8.5 11.4 11.4 17.1 5.7 19.9-11.4 39.8-2.8 54 19.9 28.4 28.4 65.4 0 91-5.7 2.8 8.5 11.4 11.4 17.1 17.1 48.3-17.1 113.7 39.8 153.5 16.3 11.4 3.6 32.2-8.1 55.9 45.8-4.2 85.2-12.3 100.7-27.8 15.9-16.2-46.9-42.5-57-68.9z"></path><path fill="#c1a39f" d="M1106.8 3170c-4.4-11.4 0-20.1 5.4-28.6 6.2-8.8 11.9-17.3 9.1-25.8-5.7-45.5-68.2-73.9-42.6-130.8 5.7-17.1-22.7-59.7-32.7-91.2-2-8.2-3.6-16.6-5.2-25-4.6-25.2-8-50.9-13.4-76.1-2.6-8.3-5.3-16.5-8.2-24.6-5.8-16.1-12.2-31.7-19-46.3-4.5-6.5-9.6-12.6-15.3-18.2-.4 7.5-1 14.9-1.8 22.3s-1.9 14.7-3.1 22.1c-6.5 43.8-20.7 86.4-26.7 131-1.1 5.5-2.3 11.2-3.5 17.1-6.3 29.4-14.7 63.1-24.9 92.3-24.5 70-7 35 19.2 42s-7 36.7-22.7 66.5c-3.9 7.4-6.3 14.5-7.4 20.9-.1 6.7-.1 9.5-.1 15.2 2.8 17.1 22.7 5.7 28.4 17.1 11.4 42.6-17.1 68.2-42.6 96.7 39.8 8.5 85.3-22.7 108 8.5 14.2 19.9 8.5 54 10.8 81.3.8 10.4 1.6 20.3 2.3 29.1 1.4 17.6 2.4 30.7 2.5 33.5.4 10.1 15.3-4.8 15.3-4.8s-.8-15.6-2-36.3c-.6-10.4-1.2-22.1-1.8-33.7-4.4-23.6 1.3-46.3-3.7-70.2 10.6.9 21.6 1.1 32 .3 42-3.5 78.7-10.5 92.7-24.5 14-14.3-40.2-37.1-49-59.8z"></path><path fill="#fff" d="M933.9 3136.2c2.6-15-8.7-20.7-17.3-29.2-5.7 11.4-5.7 31.3 7.7 38.2 3.9-2.3 7.2-5.1 9.6-9zM938.5 3209.1c12.3-2.6 29.3-5.4 18-22.5-2.8-2.8-8.5-5.7-14.2-5.7 2.8 31.3-39.8 42.6-37 65.4 0 11.4 22.7 0 27.7-13.1 3.4-6.6 5.3-14.5 5.5-24.1zM931 3003.9c7.4 0 14.7-4.9 14.7-7.4 7.4-23.3 7.4-47.3 11-70 1.2-7.6 2.9-15 5.3-22.2 1.4-9.5 10-17.1 16.7-24.5 6.7-7.3 11.7-14.4 6.1-23-3.8-7.6-5.9-15.1-6.9-22.5-4.8-37.2 19.7-73 12.5-110.3-1-6.7-2.8-13.6-5.7-20.7-.4 7.5-1 14.9-1.8 22.3s-1.9 14.7-3.1 22.1c-6.5 43.8-20.7 86.4-26.7 131-1.1 5.5-2.3 11.2-3.5 17.1-6.3 29.4-14.7 63.1-24.9 92.3-15.8 45-14.1 46.6-4 43.9 7.2-5.9 11.5-14.3 10.3-28.1z"></path><path fill="#775e5c" d="M1106.8 3170c-4.4-11.4 0-20.1 5.4-28.6 6.2-8.8 11.9-20.1 9.1-25.8-25.6-54-48.3-91-48.3-153.5 0-17.1-28.4-37-27.1-62.5-.5-6.6-1.1-13.3-1.8-19.9-2.7-26.6-7.1-53.3-16.5-80.3-2.6-7.8-5.3-15.6-8-23.5-5.3-15.6-10.4-31.3-14.6-46.9-3.5-6.9-7.4-13.5-11.6-19.9 1.4 9.5 3.5 18.9 5.7 28.6 6.4 17.7 10.8 35.8 14.1 54.1 1.6 9.2 3 18.4 4 27.6 3.9 25.8 5.1 51.5 6.6 76.9.5 8.5 1 16.9 1.7 25.2 4.8 34.9 7.7 66.2 21.9 97.4 5.7 17.1-8.5 31.3-17.1 42.6 19.9 11.4 14.2 37 15.6 56.4-.2 7.9-.5 15.9-.3 23.8.6 23.6 5.5 46.3 30.1 63.5 14.1 9.9 3.1 27.8-7 48.3 39.5-3.7 73.6-10.6 86.9-24 14.2-14-40-36.8-48.8-59.5z"></path><path fill="#c1a39f" d="M3394.7 2907.2c-8.4-19.2 17.1-29.4 17.2-47.2.1-17.7-26.9-40-45.5-60.7-18.5-20.7 8.7-39.8 17.2-50.1s-35.4-44.4-40.4-57.7c-5-13.3 12-22.1 10.3-33.9s-15.1-41.4-40.2-103.5-40.4-60.7-40.4-60.7l-15.8 119.5s-13.9 81.1-37.9 140.1c-24 58.9-6.9 29.5 18.5 35.5s-6.9 31-22.3 56-7 45.7 8.3 41.4c15.3-4.4 10.1 23.7 6.6 41.4s-52.7 41.1-47.7 48.5c5.1 7.4 78-7 78-7s18.3 4.3 41.7 7.2c2.8 31.4 10.3 117.1 10.7 124 .4 8.5 14.8-4 14.8-4l-6.9-118.2c10.4.7 21.1.9 31.1.3 40.7-2.8 76.3-8.5 89.9-20.3 13.6-12-38.8-31.4-47.2-50.6z"></path><path fill="#fff" d="M3227 2878.1c5.2-11.9-9.3-18.5-16.1-25.1-7.2 17.1-3.1 30.7 6 33 4-2.1 7.5-4.5 10.1-7.9zM3224.3 2942.3c0-4.1 16.6.1 21.4-6.1 5.6-12.1-2.6-16.4-13.7-18.4-.6 3.3-1.2 6.4-1.7 9.3-3.5 17.7-52.7 41.1-47.7 48.5 1.5 2.2 9 2.5 18.8 1.8 12.1-7.3 20.7-18.2 22.9-35.1zM3225.1 2766.3c7.1 0 14.3-4.1 14.3-6.1 14.4-39.3.4-80.7 43.3-111.6 2.4-4.1 0-10.4-2.3-14.5-28.4-22.9-16.4-53.9-2-78.7 9.5-19.6-3.3-40.6-4.3-61.8-.8-.2-1.1-.2-1.1-.2l-15.8 119.5s-13.9 81.1-37.9 140.1c-15.4 37.9-13.9 39.2-4 37 6.7-5 10.9-12.1 9.8-23.7z"></path><path fill="#775e5c" d="M3394.7 2907.2c-8.4-19.2 17.1-29.4 17.2-47.2.1-17.7-26.9-40-45.5-60.7-18.5-20.7 8.7-39.8 17.2-50.1s-35.4-44.4-40.4-57.7c-5-13.3 12-22.1 10.3-33.9s-15.1-41.4-40.2-103.5c-14.6-36-25.8-50.6-32.7-56.6 10 43.2 29.9 84.4 37.8 128.5 2.3 22.8-7.3 45.5-2.7 68.3 0 4.1 7.1 8.3 9.5 12.5 4.7 14.5-9.6 28.9-2.6 39.3 16.5 20.8 23.6 47.7-.3 66.3-4.8 2 7.1 8.3 9.5 12.5 14.1 35.3-14.6 82.8 32.8 112 13.6 8.4 2.9 23.5-6.9 40.7 38.3-2.9 71.3-8.6 84.3-19.8 13.5-12-38.9-31.4-47.3-50.6z"></path><path fill="#c1a39f" d="M5267.2 2980.1c-8.4-19.2 17.1-29.4 17.2-47.2.1-17.7-26.9-40-45.5-60.7-18.5-20.7 8.7-39.8 17.2-50.1 8.5-10.3-35.4-44.4-40.4-57.7-5-13.3 12-22.1 10.3-33.9-1.6-11.8-15.1-41.4-40.2-103.5s-40.4-60.7-40.4-60.7l-15.8 119.5s-13.9 81.1-37.9 140.1c-24 58.9-6.9 29.5 18.5 35.5s-6.9 31-22.3 56-7 45.7 8.3 41.4c15.3-4.4 10.1 23.7 6.6 41.4s-52.7 41.1-47.7 48.5c5.1 7.4 78-7 78-7s18.3 4.3 41.7 7.2c2.8 31.4 10.3 117.1 10.7 124 .4 8.5 14.8-4 14.8-4l-6.9-118.2c10.4.7 21.1.9 31.1.3 40.7-2.8 76.3-8.5 89.9-20.3 13.6-11.9-38.8-31.3-47.2-50.6z"></path><path fill="#fff" d="M5099.5 2951.1c5.2-11.9-9.3-18.5-16.1-25.1-7.2 17.1-3.1 30.7 6 33 3.9-2.1 7.4-4.5 10.1-7.9zM5096.8 3015.3c0-4.1 16.6.1 21.4-6.1 5.6-12.1-2.6-16.4-13.7-18.4-.6 3.3-1.2 6.4-1.7 9.3-3.5 17.7-52.7 41.1-47.7 48.5 1.5 2.2 9 2.5 18.8 1.8 12-7.3 20.7-18.2 22.9-35.1zM5097.6 2839.3c7.1 0 14.3-4.1 14.3-6.1 14.4-39.3.4-80.7 43.3-111.6 2.4-4.1 0-10.4-2.3-14.5-28.4-22.9-16.4-53.9-2-78.7 9.5-19.6-3.3-40.6-4.3-61.8-.8-.2-1.1-.2-1.1-.2l-15.8 119.5s-13.9 81.1-37.9 140.1c-15.4 37.9-13.9 39.2-4 37 6.7-5 10.8-12.1 9.8-23.7z"></path><path fill="#775e5c" d="M5267.2 2980.1c-8.4-19.2 17.1-29.4 17.2-47.2.1-17.7-26.9-40-45.5-60.7-18.5-20.7 8.7-39.8 17.2-50.1 8.5-10.3-35.4-44.4-40.4-57.7-5-13.3 12-22.1 10.3-33.9-1.6-11.8-15.1-41.4-40.2-103.5-14.6-36-25.8-50.6-32.7-56.6 10 43.2 29.9 84.4 37.8 128.5 2.3 22.8-7.3 45.5-2.7 68.3 0 4.1 7.1 8.3 9.5 12.5 4.7 14.5-9.6 28.9-2.6 39.3 16.5 20.8 23.6 47.7-.3 66.3-4.8 2 7.1 8.3 9.5 12.5 14.1 35.3-14.6 82.8 32.8 112 13.6 8.4 2.9 23.5-6.9 40.7 38.3-2.9 71.3-8.6 84.3-19.8 13.5-11.9-38.9-31.3-47.3-50.6z"></path><path fill="#fff" stroke="#000" stroke-linecap="round" stroke-linejoin="round" stroke-miterlimit="10" stroke-width="2" d="M1548.2 2335c14.5-7.2 39.7-10.8 50.6-21.7 25.3-18.1 39.7-50.6 65-50.6 50.6-7.2 115.6 47 151.7 10.8 18.1-14.5 28.9-54.2 39.7-83.1 10.8-25.3 36.1-39.7 47-68.6 61.4 32.5 126.4 54.2 180.6 97.5 35.8 28.6 89.3 7.6 125.4-13.9-130.4-143.1-282.8-308.4-290.3-348.2-12.5-65.7-22.3-92.7-37.7-88.8-15.5 3.9-77.3-38.6-123.6-19.5-46.4 19.1-150.7 378.7-208.6 498.2-20.4 42.1-41.3 70.4-61.7 92.6 20.5 2.4 41.1 1.6 61.9-4.7z"></path><path fill="#1a1a1a" d="M4481.2 2433.7c.1 11.2.1 21.2.1 29.6 0 9.3.1 16.7.1 21.8v7.8c0 2.4 1.9 4.3 4.3 4.3s4.3-1.9 4.3-4.3c0 0 0-22.8-.2-58-1.6.2-3.3.4-5 .4-1.5.1-2.8-.6-3.6-1.6zM4484.3 2426.8c1.8-.1 3.6-.3 5.3-.5-.2-28.9-.5-64.8-1-102.8-.1-4.8-.1-9.6-.2-14.4-.4.2-.6.4-.6.4-2 1.2-4.6.5-5.8-1.5-1.2-2-.5-4.6 1.5-5.8 0 0 1.7-1 4.7-2.8h.1c-.1-3.5-.1-7.1-.2-10.6-.4.3-.9.5-1.4.6-2.3.6-4.6-.8-5.2-3.1l-.1-.4c-.1-.3-.2-.6-.3-1.1-.3-1-.7-2.5-1.2-4.4-.2-.6-.4-1.2-.5-1.8.2 11.5.4 23 .6 34.3 6 13.1 8.7 22.5 8.7 22.7.6 2.3-.7 4.6-3 5.2-2.3.6-4.6-.7-5.2-3v-.1l-.1-.3v-.1c.1 10.9.3 21.6.4 31.9 4.1 2.1 6.1 3.4 6.2 3.4 2 1.3 2.5 3.9 1.3 5.9-1.3 2-3.9 2.5-5.9 1.3l-.1-.1c-.1-.1-.4-.2-.7-.4l-.6-.3c0 3.2.1 6.4.1 9.5.1 14.5.2 28 .3 40.2.5-1.2 1.6-1.8 2.9-1.9zM4485.6 2186.4c-.6-17.2-1.2-33.5-2-48.6-1-.5-1.7-1.5-2.1-2.6-.5-1.8.3-3.6 1.7-4.6-1-19.7-2.2-36.9-3.6-50.2-2.6-24.3-5.6-73.3-8.8-133-4.7-89.6-9.6-203.5-13.3-294.9-1.9-45.7-3.4-85.8-4.5-114.5-.5-14.3-1-25.8-1.3-33.7-.3-7.9-.5-12.2-.5-12.2-.1-2.4-2.1-4.2-4.4-4.1-2.4.1-4.2 2.1-4.1 4.4 0 0 4.5 122.7 10.3 257.7 2.9 67.5 6.1 138 9.3 197.8 2.9 56 5.8 102.6 8.3 128.5 2.2.3 3.7.3 4.3.3h.3c2.4-.1 4.3 1.8 4.4 4.1.1 2.4-1.8 4.3-4.1 4.4h-.6c-.6 0-1.8 0-3.5-.2 2.4 24.3 4.2 60.6 5.6 101.7.7 20.7 1.3 42.5 1.8 64.7 4.3 10.6 7.3 19.8 9.1 25.8-.6-31-1.4-62.1-2.3-90.8z"></path><path fill="#1a1a1a" d="M4475.5 2085.1c2.4-.1 4.2-2 4.1-4.4-.1-2.4-2-4.2-4.4-4.1h-.3c-.6 0-2.1 0-4.3-.3-5-.6-13.6-2.2-23.3-7.1-14.1-7.1-30.9-20.9-43.5-48.5-3-6.6-6.3-16.6-9.6-28.9-11.5-43.2-23.4-115.2-32.3-181.4-4.5-33.1-8.2-64.8-10.9-90.7-2.6-25.9-4.1-46.2-4.1-56.1 0-1.6 0-3 .1-4 0-.5.1-.9.1-1.1l.1-.3v-.1c.7-2.2-.5-4.6-2.7-5.4-2.2-.7-4.6.5-5.4 2.7-.4 1.2-.5 2.2-.6 3.5-.1 1.3-.1 2.8-.1 4.6 0 6.1.5 15.3 1.4 26.9 3.2 40.8 11.6 111.6 22 178.6 5.2 33.5 10.9 65.9 16.7 93.1 2.9 13.6 5.8 25.9 8.8 36.4 2.9 10.5 5.8 19.2 8.8 25.6 13.3 29.3 31.7 44.7 47.5 52.5 12.1 6.1 22.6 7.7 28 8.2 1.6.1 2.8.2 3.5.2.1.1.3.1.4.1zM4481.5 2135.2c.3 1.2 1.1 2.1 2.1 2.6.9.5 2.1.7 3.2.4.2 0 25.7-7 52.7-20.5 13.5-6.8 27.4-15.2 38.8-25.4 5.7-5.1 10.7-10.7 14.7-16.7 4-6.1 7-12.6 8.4-19.7 2.6-13.2 6.1-38 9.8-68.2 11.1-90.4 24.6-227.5 24.6-227.5.2-2.3-1.5-4.4-3.8-4.7-2.3-.2-4.4 1.5-4.7 3.8 0 0-.4 3.8-1.1 10.6-2.4 23.7-8.4 83.6-15 143.2-3.3 29.8-6.7 59.5-9.9 84.6-3.2 25.1-6.1 45.5-8.3 56.5-1.2 5.8-3.6 11.4-7.1 16.7-6.1 9.3-15.5 17.8-26.2 25.1-16 11.1-34.9 19.6-49.7 25.3-7.4 2.9-13.8 5-18.4 6.5-2.3.7-4.1 1.3-5.3 1.6-.6.2-1.1.3-1.4.4s-.5.1-.5.1c-.5.1-.9.4-1.3.6-1.3 1.1-2.1 2.9-1.6 4.7zM4483.5 2302.1c-2 1.2-2.7 3.8-1.5 5.8 1.2 2 3.8 2.7 5.8 1.5 0 0 .2-.1.6-.4 4.7-2.8 37.6-22.2 74-45.9 19.7-12.8 40.4-26.8 58.3-40.2 9-6.7 17.2-13.2 24.3-19.3 7.1-6.1 13-11.9 17.3-17.1 4.4-5.4 9-13 13.7-22.3.9-1.8 1.8-3.6 2.7-5.5-.6.2-1.2.4-1.9.6-2.3.6-4.6-.7-5.3-3-.6-2.3.7-4.6 3-5.3 3.1-.9 6.1-1.9 9.1-3 6-13.4 12.2-28.8 18.3-45.2 26.1-69.8 50.5-154.9 50.5-155 .6-2.3-.7-4.6-2.9-5.3-2.3-.6-4.6.7-5.3 2.9 0 0-.2.8-.6 2.2-3.2 10.9-17.7 60.3-35.2 111.5-8.8 25.6-18.3 51.7-27.4 73.6-4.6 10.9-9.1 20.8-13.4 29.1-4.3 8.2-8.3 14.8-11.8 19.1-3.8 4.6-9.5 10.1-16.3 16.1-24 20.8-63.1 47.1-96.1 68.1-16.5 10.5-31.5 19.7-42.3 26.3-5.4 3.3-9.8 5.9-12.8 7.7h-.1c-3 2-4.7 3-4.7 3zM4481.1 2284.6c.1.5.2.9.3 1.1l.1.4c.6 2.3 2.9 3.7 5.2 3.1.5-.1 1-.4 1.4-.6 1.4-1 2.1-2.7 1.7-4.5 0-.1-.7-2.7-1.9-7-1.8-6-4.7-15.3-9.1-25.8l-1.2-3c-4.1-9.8-9.4-20.5-15.8-30.6-6.5-10.1-14.1-19.6-23.2-26.8-8-6.4-17.3-17.6-26.4-30.8-13.7-19.8-27.2-43.9-37.3-63.1-5-9.6-9.2-17.9-12.1-23.9-1.5-3-2.6-5.3-3.4-7-.4-.8-.7-1.4-.9-1.9l-.3-.6c-1-2.1-3.5-3.1-5.7-2.1-2.1 1-3.1 3.5-2.1 5.7 0 .1 11.9 25.5 28 54.4 8.1 14.5 17.3 29.8 26.6 43.3 9.4 13.5 18.9 25.2 28.1 32.6 8.1 6.5 15.2 15.2 21.3 24.8 9.2 14.3 16 30.4 20.4 42.8 1.9 5.3 3.4 9.9 4.4 13.4.2.6.4 1.3.5 1.8.7 1.9 1.1 3.3 1.4 4.3zM4480.4 2337.7c.7 2.4 3 3.7 5.3 3.1 2.3-.6 3.6-3 3-5.2 0-.2-2.7-9.6-8.7-22.7-2.3-5-5.1-10.5-8.5-16.3-6.1-10.4-14-21.6-24-31.7-10-10.1-22.2-19-36.9-24.8-3-1.2-6.7-3.4-11-6.6-8-6-17.7-15.2-28.4-26.7-37.5-40.4-87.5-109.2-128-168.9-20.3-29.9-38.1-57.5-50.9-78.2-6.4-10.4-11.5-19-15-25.3-1.7-3.1-3.1-5.7-3.9-7.5-.4-.9-.7-1.6-.9-2.1l-.1-.4c-.2-2.1-2-3.8-4.2-3.8-2.4 0-4.3 1.9-4.3 4.3 0 .9.2 1.4.3 1.9.3 1 .7 2 1.3 3.2 2.1 4.7 6.5 12.5 12.8 23 22.1 36.8 67.2 105.5 112.7 167.5 22.8 31 45.7 60.3 65.8 83.1 10.1 11.4 19.5 21.2 28 28.8 8.5 7.6 16 13 22.7 15.7 13.4 5.3 24.6 13.5 34 22.9 14.1 14.1 23.9 30.9 30.1 44.1 3.1 6.6 5.4 12.4 6.8 16.4.7 2 1.2 3.6 1.6 4.7.2.5.3.8.3 1.1v.1l.1.3zM4482 2379.6l.1.1c2 1.3 4.6.7 5.9-1.3 1.3-2 .7-4.6-1.3-5.9-.1-.1-2.1-1.3-6.2-3.4-9.8-5-32-14.8-70.6-24.6-26.6-6.7-63.6-22.5-93.7-36.6-15.1-7.1-28.5-13.7-38.1-18.6-4.8-2.4-8.7-4.4-11.3-5.8-1.3-.7-2.4-1.2-3.1-1.6-.7-.4-1.1-.6-1.1-.6-2.1-1.1-4.7-.3-5.8 1.8-1.1 2.1-.3 4.7 1.8 5.8 0 0 23.6 12.5 53.9 26.7 30.4 14.2 67.5 30.2 95.3 37.2 27 6.8 45.6 13.6 57.5 18.7 5.9 2.5 10.2 4.6 12.9 6.1 1 .5 1.8 1 2.4 1.3.2.1.5.3.6.3.5.2.7.3.8.4z"></path><path fill="#1a1a1a" d="M4671.6 2156.4c.6 2.3 3 3.6 5.3 3 .6-.2 1.2-.4 1.9-.6 37.5-11.2 69.6-38.1 92.5-62.4 23.3-24.7 37.2-46.6 37.3-46.8 1.3-2 .7-4.6-1.3-5.9-2-1.3-4.6-.7-5.9 1.3l-.1.2c-1.5 2.4-15.7 24.1-38.3 47.5-20.6 21.4-48.2 44.2-79.3 55.4-3 1.1-6 2.1-9.1 3-2.3.7-3.6 3.1-3 5.3zM4703.8 2283.5c.3-.8.9-1.4 1.5-1.9-16.5 11.3-32.8 20.8-47.5 27-39 16.5-68.5 46-95.4 71.2-13.5 12.6-26.2 24.2-39 32.6-11.1 7.3-22.2 12.3-33.7 13.9-1.8.2-3.5.4-5.3.5-1.3.1-2.5.7-3.2 1.7-.6.8-.9 1.7-.9 2.7 0 .9.4 1.7.9 2.4.8 1.1 2.1 1.7 3.6 1.6 1.7-.1 3.3-.2 5-.4 13.6-1.6 26.2-7.3 38.3-15.3 20.4-13.5 39.6-33.4 60.9-52.9 21.3-19.5 44.4-38.4 72.2-50.2 14.9-6.3 31-15.7 47.2-26.6-.7-.3-1.5-.5-2.2-.8-2.2-.8-3.2-3.3-2.4-5.5zM4709.4 2281.2c2.5 1 5.1 1.9 7.7 2.7 2-1.4 4.1-2.9 6.1-4.4 63.6-46.1 126-110.7 126-110.8 1.6-1.7 1.6-4.4-.1-6-1.7-1.6-4.4-1.6-6 .1 0 0-.4.4-1.2 1.3-6.2 6.3-34.7 35.1-70.4 66-17.9 15.4-37.6 31.4-57.2 45.4-2.9 2.1-5.9 4.1-8.8 6.1 1.1-.8 2.5-1 3.9-.4z"></path><path fill="#1a1a1a" d="M4947.5 2221.2c-1.4-1.9-4.1-2.3-6-.9l-.3.2c-2.7 2-27.3 19.4-61.7 36.4-34.5 16.9-78.9 33.2-121 33.2-14.2 0-28.2-1.9-41.5-6.1-2.6-.8-5.2-1.7-7.7-2.7-1.3-.5-2.8-.3-3.9.4l-.1.1c-.7.5-1.2 1.1-1.5 1.9-.9 2.2.2 4.7 2.4 5.5.7.3 1.5.5 2.2.8 16.1 6.1 33.1 8.7 50.2 8.7 45.7 0 92.5-17.9 128.1-35.7 35.5-17.8 59.8-35.6 59.9-35.6 1.9-1.6 2.3-4.3.9-6.2z"></path><path fill="#fa5" stroke="#1a1a1a" stroke-miterlimit="10" stroke-width="2" d="M3174.8 2804.5v363.1l-675.6 70.4-9.9-446.4zM1525.7 2762.4V3238h973.5l-10.3-461.8-462.5-431z"></path><path fill="#e2e4ed" stroke="#000" stroke-linecap="round" stroke-linejoin="round" stroke-miterlimit="10" stroke-width="2" d="M1417.6 2736.7c-2.6 28.3-22.3 98.7 29.2 78.1 51.5-20.6 265.5-175.3 288.4-193.1 106.5-82.9 296.2-224.1 296.2-224.1l520.2 466.1s33.5-11.6 33.5-59.2-524.1-529.1-557.9-526.3c-33.8 2.9-609.6 458.5-609.6 458.5z"></path><path fill="#e2e4ed" stroke="#000" stroke-linecap="round" stroke-linejoin="round" stroke-miterlimit="10" stroke-width="2" d="M2551.6 2863.7s80.7.9 202.6-8.6c121.9-9.4 357.1-20.6 427.5-25.8 70.4-5.2 77.3-9.4 82.4-39.5s6.7-39-15.1-46.1c-21.8-7.1-640.7-2-649.3 12.6-8.6 14.6-43.8 52.4-43.8 65.2s-4.3 42.2-4.3 42.2z"></path><path fill="#fff" stroke="#000" stroke-linecap="round" stroke-linejoin="round" stroke-miterlimit="10" stroke-width="2" d="M2815.1 2247.4s-779.4 27.4-788 30.9c-8.6 3.5 60 75.6 87.5 120.2 27.5 44.6 446.4 405.2 470.4 406 24 .9 659.3-8.6 665.3-46.4s-79.8-109-109-138.2-293.6-381.1-326.2-372.5z"></path><path fill="#c96e14" stroke="#1a1a1a" stroke-linecap="round" stroke-linejoin="round" stroke-miterlimit="10" stroke-width="2" d="M2151.1 2856v311.6h-233v-370.9s-4.3-86.3 94.4-94c1-.1 2.1-.1 3.1-.2 7.9-.5 15.4-.5 22.5-.1 73.4 4.7 107.2 58.1 112.3 132.8.4 5.5.6 11 .7 16.7v4.1z"></path><path fill="#323747" d="M2150.4 2835.3c-24.9-2.3-67.7-2.5-111.1-1.8.5-58.4.3-108.8-1.2-131-7.1-.4-14.6-.4-22.5.1.3 19.3.9 70.8 1.9 131.3-39.5.8-77.1 2.1-99.5 3v16.3l99.8-.5c2.1 121.6 5.3 269 8.8 269.2 6 .4 7.7-3 7.7-3s3.5-145 4.8-266.3l111.9-.6c0-5.7-.2-11.2-.6-16.7z"></path><path fill="#323747" d="M1916.2 2967.8s233.6-7.9 234.6-5.9.5 15.2.5 16.7-233-.2-233-.2l-2.1-10.6z"></path><path fill="#c96e14" stroke="#1a1a1a" stroke-linecap="round" stroke-linejoin="round" stroke-miterlimit="10" stroke-width="2" d="M2713.8 3141.9v-198.3s-3.1-52.8 97.6-55.4c100.7-2.6 98 90.1 98 90.1v158.4l-195.6 5.2z"></path><path fill="#323747" d="M2909.4 2987.2c-28.3.4-56.6 2.9-83 6.5-.3-42.8-1-86.1-1.3-105.1-4.4-.3-8.9-.5-13.7-.3-1.4 0-2.7.1-4 .2.9 19.7 2.6 65.3 1.3 85.9-.3 4.7-.5 12.5-.6 22.1-39.6 6.2-73.4 14.1-94.2 19.6v21.5c21.1-5.8 57.6-15.9 77.8-23 4.1-1.4 9.7-2.6 16.3-3.7-.2 45.4.7 111.7.7 111.7s12.4-9.4 16.3-18.9c1.7-4.1 1.9-47.6 1.6-95.3 26.9-2.9 60.6-4.2 82.8-4.9v-16.3z"></path><path fill="#fff" d="M1333.5 3358.2h2462s-290-270.4-544.8-312.9-529 43.8-612.1 122.3c-98.9-98.8-974.2-164.8-1305.1 190.6z"></path><path fill="#e2e4ed" d="M2919.4 3309.6s101.3-78.4 294.5-40.5 237.8 6.8 270.2 1.4c32.4-5.4 162.1-10.8 162.1-10.8l-29.7 43.2s-177 20.3-235.1 8.1c-58.1-12.2-190.5-25.7-272.9-10.8s-189.1 9.4-189.1 9.4z"></path><path fill="#93274b" stroke="#1a1a1a" stroke-linecap="round" stroke-linejoin="round" stroke-miterlimit="10" stroke-width="2" d="M3610 3358.2h744.3v-566.6l-354.1-298.7-400.5 224z"></path><path fill="#fa5" stroke="#1a1a1a" stroke-miterlimit="10" stroke-width="2" d="M4107.9 2935.8v422.3h-245.5V2941s34.9-114.7 114.6-121.6l3.9-.3c3.8-.1 7.4-.1 11 .3 75.3 6.9 116 116.4 116 116.4z"></path><path fill="#323747" d="M3990.1 2973.6c-.5 27.8-1.1 56.7-1.7 85.2 47.3-.2 94.2-.1 119.6.6v17.6l-120-1.5c-.6 26.6-1.2 52.6-1.7 76.7 48.1 1.4 95.6 3 121.7 4.7v14.7c-25.7.1-74.1.3-122.2.1-1.6 65.7-2.8 113.3-2.8 113.3l-9.1 4.1.8-117.4c-46.3-.2-90.6-.7-112.2-1.7v-20.8c25.8.5 68.6 1.5 112.3 2.7l.5-76.5-112.8-1.4v-14.1c23.4-.3 67.4-.7 112.9-1l.6-84.9c-46 1.2-90.1 2.4-113.5 5.1v-11.5c21.4-2.4 65.6-6.9 113.6-9.9l.9-138.4 3.9-.3c3.8-.1 7.4-.1 11 .3.1 30.7-.5 81.1-1.5 137.5 41.8-2.2 85-3 117.6.1v11.2c-27.8 3-72.9 4.3-117.9 5.5z"></path><path fill="#93274b" stroke="#1a1a1a" stroke-linecap="round" stroke-linejoin="round" stroke-miterlimit="10" stroke-width="2" d="M4973.2 2827.7v487.6l-618.9 42.9v-566.6z"></path><path fill="#e2e4ed" stroke="#000" stroke-linecap="round" stroke-linejoin="round" stroke-miterlimit="10" stroke-width="2" d="M4367.2 2830.2s-13.7 16.3 3.4 19.7c17.2 3.4 473.9-2.6 521.9-5.2 48.1-2.6 158 5.2 180.3-10.3 22.3-15.5 15.6-54.7-2.9-65.1-18.5-10.4-630-1.6-650.6 0s-52.1 60.9-52.1 60.9z"></path><path fill="#fff" stroke="#000" stroke-linecap="round" stroke-linejoin="round" stroke-miterlimit="10" stroke-width="2" d="M4006.6 2417.3s693.8 7.9 701.8 0c7.9-7.9 34.8 18.9 43.8 34.3s318.1 310.3 320.6 321.9-664.4 24.5-682.5 12.9c-18-11.5-396.5-349.3-383.7-369.1z"></path><path fill="#fff" d="M3600.2 3310.1s332.2-85 676-77.3c343.8 7.7 513.8-80.8 699.2-84.8 185.4-4 509.9 85 594.9 81s112 127.4 112 127.4H3497.2s65.2-37.5 103-46.3z"></path><path fill="#e2e4ed" stroke="#000" stroke-linecap="round" stroke-linejoin="round" stroke-miterlimit="10" stroke-width="2" d="m3999.8 2510 370.8 339.9s24-42.9 29.2-63.5c5.1-20.6-369.1-367.4-393.2-369.1-24-1.7-485.9 283.3-480.7 310.8 5.2 27.5 6.9 61.8 46.4 39.5 39.5-22.3 427.5-257.6 427.5-257.6z"></path><path fill="#fff" d="M887.5 1590.8h842.1s-173.4-154.1-327.9-92.3c-77.3-154.5-269.5-36.1-276.4 20.6-84.1-101.2-237.8 71.7-237.8 71.7zM1899.6 1435h878.2s-249.8-57.5-312.5-35.2c-67-67.8-152.8-23.2-164-6-54.1-55.8-111.6-4.3-147.7-8.6-65.2-66.1-133.9 2.6-133.9 20.6-80.6-8.5-120.1 29.2-120.1 29.2z"></path><path fill="#e4e8ef" d="M3229.8 1106.2c-16.2 3.9-52 26.8-52 26.8s-17.9-18.5-24.1-22.4c29.6-11.2 17.3-28.5 8.9-34.1-16.8 2.2-35.2-10.6-35.2-10.6s-20.1-16.2-26.8-29.1-9.8-14.8-7.8-16.5c2-1.7 3.6-11.2-.3-12-3.9-.8-24.1-38-47.5-31.3-23.5 7-22.9 10.6-22.9 10.6s-12.9-7.3-12.6 0c.3 7.3 7.6 15.1 12.6 9.5s24.3-12 31-5.6c6.7 6.4-12.3 32.2-7.6 40.6 4.8 8.4 5 12.3 5 12.3l-7.3 16.5-15.7-38.9-24.9.8-18.2-10.6-1.4 14.3 5 12.9-27.1 11.2 6.7 16.5-3.9 9.5 10.9 12.9s-43.1-3.4-30.8 21.8 48.1 51.5 43.6 68.8c-4.3 16.7 16.3 25.6 22.8 26.2l-1 14.9 1.6.8c-19.8-8.7-41.5-19.2-41.5-19.2s-6.5 2.9-2.9 8.8c0 0 51.6 31 118.3 35.2 66.7 4.2 128.2-8 132.1-31-7.8-5.9-13.8-1.3-18 5.7-3.1 5.2-24.8 13.2-44.9 17.1l-1.4-14.9c10.3-.8 17.8-3 20.6-7.2 17.3-11.2 63.2-46.4 63.2-46.4s-8.4-14.5 1.1-39.2c9.7-24.7 8.6-28.6-7.6-24.7zm-215.1 117.3 2.3-16.2c6.9 1.3 19.1 3.6 33.7 6.2l-1 20.2c-10.7-1.8-19.8-3.9-25.7-6.3-2.9-1.2-6-2.5-9.3-3.9zm40.7 11.1 2.3-19.9c10.7 1.8 22.4 3.7 34.2 5.3v18.9c-12.2-1.1-25-2.5-36.5-4.3zm79.9 6.2c-8.1.2-22.1-.3-37.7-1.5l1.1-18.5c17 2.1 33.7 3.5 47.1 3.2l2.7 15.5c-4.7.7-9.2 1.2-13.2 1.3zM3428.9 1206.4l2.5 14.7s15.5.8 18.9-9.2-2.5-37.8 4.6-42.4c7.1-4.6 39.4-30.6 40.7-44 24.8 11.3 75.9-14.3 82.6-27.7l11.7 2.5s-2.9 42.4-16.8 42.4c-13.8 0-15.9 1.7-15.9 1.7l5 18s21.4-7.6 28.9-20.1c7.6-12.6 11.3-62.1 11.3-62.1l-18.9-1.7 1.3-8.4s15.9-10.5 22.7-7.1c6.7 3.4 8.8 43.2 8.8 43.2l-8 8.4 10.9 14.3s13.8-19.3 15.5-26.4-11.7-59.2-18-60-36.1 18.5-36.1 18.5-19.3-27.3-26.8-29.8c-7.6-2.5-12.2-15.5-12.2-15.5s10.1-2.1 18.5.4 23.5-22.2 15.9-25.2c-7.6-2.9-25.6.4-31.5-4.6s-13-9.6-13-9.6 49.5-25.2 55.4-39c-9.6-3.4-10.9 2.9-10.9 2.9s-31 23.1-35.2 23.1 15.9-34.8 15.9-34.8-6.3 0-8.4 3.8c-2.1 3.8-10.6 31.5-13.4 32.6-2.8 1.1-3.8 4.1-9.8 4.5-6 .4-12.2-1.1-13.1-2.7-1-1.5-6.2-18.2-8.7-17.9-2.5.3-3.9.7-2.2 4.8 1.7 4.1 8 15 5 17.1-2.9 2.1-8 1-12-3.2-4.1-4.2-6.7-6.2-6.6-8.4s1.4-25.7-4.2-28.5c-5.6-2.8-5-2.8-4.3 1.5.7 4.3 3.1 21.4 2 22.1s-7.3-4.3-11.7-11.9c-4.5-7.6-8.1-17.1-10.3-16.6-2.2.4-2.1 4.3-1.3 5.9.8 1.5 12.4 22.2 17.6 27.8s9.6 12.2 4.2 10.1-23.5-6.3-30.5-15.4-10.2-1.3-8.5.7c1.7 2 3.2 5.6 11.9 10.6s20.4 8.7 29.4 10.5c8.9 1.8 18.9 4.9 15.4 6.4-3.5 1.5-10.5 3.5-10.9 4.1-.4.6-20.1-8.7-18.7-2.4s2.5 10.2 9.4 13.8c6.9 3.6 19.3 2.9 19.3 2.9s3 9.6 11.4 23.5 13 13.4 10.9 26c-2.1 12.6 1.3 25.4-11.7 27.1s-45.1-3.4-53.5 4.6c-19.3-24.8-34.4-30.2-33.8-21 .6 9.2 3.1 14.9 11.3 18 8.2 3.1 17.6 8.4 12.8 14.3-4.8 5.9-2.1 35 5.7 46.8 7.8 11.7-10.3 8.4-13.6 8-3.4-.4-16.4.6-16.4.6s-6.5 30.2-13.6 31.9-8.6 2.3-8.6 2.3l.2 22s7.8-4.2 10.9-8.4c3.1-4.2-1.9-2.1 10.1-9s12.4-27.9 12.4-27.1 13.2 1.3 13.8 1c.6-.2-6.3 9.4-6.3 16.2s1.7 16.6 0 18.2c-1.8 1.5-9.4 10.3-9.4 10.3zM3685.6 1197.6l2.5 14.7s15.5.8 18.9-9.2-2.5-37.8 4.6-42.4c7.1-4.6 39.4-30.6 40.7-44 24.8 11.3 75.9-14.3 82.6-27.7l11.7 2.5s-2.9 42.4-16.8 42.4c-13.8 0-15.9 1.7-15.9 1.7l5 18s21.4-7.6 28.9-20.1c7.6-12.6 11.3-62.1 11.3-62.1l-18.9-1.7 1.3-8.4s15.9-10.5 22.7-7.1c6.7 3.4 8.8 43.2 8.8 43.2l-8 8.4 10.9 14.3s13.8-19.3 15.5-26.4c1.7-7.1-11.7-59.2-18-60s-36.1 18.5-36.1 18.5-19.3-27.3-26.8-29.8c-7.6-2.5-12.2-15.5-12.2-15.5s10.1-2.1 18.5.4 23.5-22.2 15.9-25.2c-7.6-2.9-25.6.4-31.5-4.6s-13-9.6-13-9.6 49.5-25.2 55.4-39c-9.6-3.4-10.9 2.9-10.9 2.9s-31 23.1-35.2 23.1 15.9-34.8 15.9-34.8-6.3 0-8.4 3.8c-2.1 3.8-10.6 31.5-13.4 32.6-2.8 1.1-3.8 4.1-9.8 4.5-6 .4-12.2-1.1-13.1-2.7-1-1.5-6.2-18.2-8.7-17.9-2.5.3-3.9.7-2.2 4.8s8 15 5 17.1-8 1-12-3.2c-4.1-4.2-6.7-6.2-6.6-8.4s1.4-25.7-4.2-28.5c-5.6-2.8-5-2.8-4.3 1.5.7 4.3 3.1 21.4 2 22.1-1.1.7-7.3-4.3-11.7-11.9-4.5-7.6-8.1-17.1-10.3-16.6-2.2.4-2.1 4.3-1.3 5.9.8 1.5 12.4 22.2 17.6 27.8 5.2 5.6 9.6 12.2 4.2 10.1-5.5-2.1-23.5-6.3-30.5-15.4-7-9.1-10.2-1.3-8.5.7 1.7 2 3.2 5.6 11.9 10.6s20.4 8.7 29.4 10.5 18.9 4.9 15.4 6.4c-3.5 1.5-10.5 3.5-10.9 4.1-.4.6-20.1-8.7-18.7-2.4 1.4 6.3 2.5 10.2 9.4 13.8 6.9 3.6 19.3 2.9 19.3 2.9s3 9.6 11.4 23.5c8.4 13.8 13 13.4 10.9 26-2.1 12.6 1.3 25.4-11.7 27.1s-45.1-3.4-53.5 4.6c-19.3-24.8-34.4-30.2-33.8-21 .6 9.2 3.1 14.9 11.3 18 8.2 3.1 17.6 8.4 12.8 14.3-4.8 5.9-2.1 35 5.7 46.8 7.8 11.7-10.3 8.4-13.6 8-3.4-.4-16.4.6-16.4.6s-6.5 30.2-13.6 31.9c-7.1 1.7-8.6 2.3-8.6 2.3l.2 22s7.8-4.2 10.9-8.4c3.1-4.2-1.9-2.1 10.1-9s12.4-27.9 12.4-27.1c0 .8 13.2 1.3 13.8 1 .6-.2-6.3 9.4-6.3 16.2 0 6.7 1.7 16.6 0 18.2-1.8 1.5-9.4 10.3-9.4 10.3z"></path><path fill="#e4e8ef" d="M3121.8 1076.8s88.9-16.8 147.7 2.5 203.9 28.5 227.4 24.3c23.5-4.2 271-27.7 271-27.7l-3.4 5.9s-232.8 27.3-273.5 26.8c-40.7-.4-184.2-8.8-221.1-20.1-36.9-11.3-145.1-6.7-146.4-5.9-1.2.9-1.7-5.8-1.7-5.8zM3195.7 1154s83.9-19.3 144.3-19.3 157.7-13.4 157.7-13.4 238.3 5.9 247.5-5c9.2-10.9-11.7 0-11.7 0s-227 2.9-238.7 2.1-78.4 6.7-99 8c-20.6 1.3-170.3 13.8-171.6 13.8s-28.5 13.8-28.5 13.8z"></path><path fill="#fff" d="M2406.9 1283.1h831.8s-167.4-162.2-323.2-78.5c-103-150.7-235.6-28.3-239.5 20.6-93.9-73.5-269.1 57.9-269.1 57.9zM4982.3 2436.8h409.5s-176.4-65.7-212.5-36.1c-36.1-108.2-121-47.6-123.6-18-60.6-16.7-73.4 54.1-73.4 54.1zM4194.2 1382.2h471.3s-123.6-86.3-173.8-45.1c-65.7-55.4-149.4 3.9-149.4 3.9-68.3-33.5-148.1 41.2-148.1 41.2zM790.9 3348.5s-15.5 131.3 197 139.1c212.5 7.7 490.6 27 621.9 73.4s224.1-61.8 355.4-61.8c131.3 0 533.1 96.6 842.1 19.3s448.1-166.1 448.1-166.1l-2464.5-3.9zM3282.5 3348.5s3.9 131.3 355.4 131.3 509.9 38.6 737.8 61.8c227.9 23.2 521.5-19.3 606.5-57.9 85-38.6 378.6-139.1 378.6-139.1s-119.8-57.9-305.2-38.6-1773.1 42.5-1773.1 42.5z"></path><path fill="#fa5" stroke="#1a1a1a" stroke-miterlimit="10" stroke-width="2" d="M4860.2 3041.4c-.1 17-.4 34.5-.8 48.2-.4 15.1-11.7 27.6-26.7 29.5l-81.2 10.3-16.2 2-100.7 12.7c-18.2 2.3-34.3-11.9-34.3-30.3v-113.7c0-11.8 6.8-22.7 17.5-27.6 7.1-3.3 17-6.7 30.6-9.5 15.5-3.2 47-6 80.1-8.2 5.6-.4 11.2-.7 16.8-1.1 31.2-1.8 61.8-3.2 80-3.9 13.6-.5 26.1 7.9 30.1 20.9 1.4 4.3 2.5 9.4 3.2 15.4.8 6.9 1.3 18.2 1.4 31.4.2 7.6.2 15.7.2 23.9z"></path><path fill="#323747" d="m4860.2 3041.4-111.5 8.2 2.8 79.8-16.2 2c-1.1-19-2.4-49.3-3.6-80.6l-131.5 9.7v-19.3c24-2.4 77-7.8 130.7-12.8-1-27.9-1.9-54.8-2.5-73.5 5.6-.4 11.2-.7 16.8-1.1l2.6 73c44.4-4.1 87.2-7.8 112.3-9.2.1 7.5.1 15.6.1 23.8z"></path><path fill="#e2e4ed" d="M3981.9 3348.8s27.7-16.2 60.8-8.8c33.1 7.4 69.6 16.2 135.8 7.4 66.2-8.8 48 1.4 4.1 6.1-43.9 4.7-134.4 4.7-154 2-19.6-2.7-58.1 16.9-71.6 9.5-13.6-7.4 4.7-16.2 24.9-16.2zM4507.8 3275.8s147.9 9.1 206.7 40.5c58.8 31.4 125.6-4.1 179.3-15.2s120.6-33.4 120.6-33.4-107.1 23.3-128.3 28.4-83.8 8.8-113.1 6.4-31.1-7.1-48.3-12.5c-17.2-5.4-127.2-5.8-142.4-9.4s-83.1-13.4-74.5-4.8zM1294.3 3351.3s559.1 46.1 572.7 38-112.1-40.5-190.5-39.2c-78.4 1.4-247.9-23.1-254-34.8-6.1-11.7-25.3-17.7-34.5-10.6-9.1 7.1-125.6 31.4-93.7 46.6zM2287.1 3375.8c3.5 7 354 16.2 399.9 13.5 45.9-2.7 106.7-33.8 40.5-32.4s-39.2 2.7-167.5 4.1-286.4-12.2-272.9 14.8zM2630.2 3159.6s148.6 113.5 186.4 117.5c37.8 4.1-52.7-39.9-88.2-75.3-35.5-35.5-38.5-76-38.5-76s-46 36.2-59.7 33.8z"></path><circle cx="2640.8" cy="1176.8" r="40.2" fill="#fff"></circle><circle cx="4237.3" cy="1630.8" r="20.1" fill="#fff"></circle><circle cx="4812.9" cy="2467.9" r="20.1" fill="#fff"></circle><circle cx="4830.2" cy="2909.7" r="49.1" fill="#fff"></circle><circle cx="3266" cy="1339.5" r="20.1" fill="#fff"></circle><path fill="#adbbc9" d="M3741.5 1665.6c0 4.7 1.2 9.2 3.3 13.1 4.7 8.6 13.8 14.5 24.3 14.5 15.2 0 27.6-12.4 27.6-27.6 0-7.9-3.3-15-8.6-20-5-4.7-11.6-7.6-19-7.6-15.2 0-27.6 12.3-27.6 27.6z"></path><path fill="#fff" d="M3741.5 1665.6c0 4.7 1.2 9.2 3.3 13.1 5 4.7 11.6 7.6 19 7.6 15.2 0 27.6-12.3 27.6-27.6 0-4.7-1.2-9.2-3.3-13.1-5-4.7-11.6-7.6-19-7.6-15.2 0-27.6 12.3-27.6 27.6z"></path><path fill="#adbbc9" d="M2516.1 1771.1c0 8.4 2.1 16.4 5.9 23.3 8.3 15.3 24.5 25.7 43.2 25.7 27.1 0 49.1-22 49.1-49.1 0-14-5.9-26.6-15.3-35.6-8.8-8.4-20.7-13.5-33.8-13.5-27.2.2-49.1 22.1-49.1 49.2z"></path><path fill="#fff" d="M2516.1 1771.1c0 8.4 2.1 16.4 5.9 23.3 8.8 8.4 20.7 13.5 33.8 13.5 27.1 0 49.1-22 49.1-49.1 0-8.4-2.1-16.4-5.9-23.3-8.8-8.4-20.7-13.5-33.8-13.5-27.2.1-49.1 22-49.1 49.1z"></path><path fill="#adbbc9" d="M2925.3 1545.1c0 5.1 1.3 10 3.6 14.2 5.1 9.3 14.9 15.7 26.3 15.7 16.5 0 29.9-13.4 29.9-29.9 0-8.5-3.6-16.2-9.3-21.6-5.4-5.1-12.6-8.2-20.6-8.2-16.6-.1-29.9 13.3-29.9 29.8z"></path><path fill="#fff" d="M2925.3 1545.1c0 5.1 1.3 10 3.6 14.2 5.4 5.1 12.6 8.2 20.6 8.2 16.5 0 29.9-13.4 29.9-29.9 0-5.1-1.3-10-3.6-14.2-5.4-5.1-12.6-8.2-20.6-8.2-16.6 0-29.9 13.4-29.9 29.9z"></path><path fill="#adbbc9" d="M846.1 2537.2c0 6 1.5 11.6 4.2 16.6 5.9 10.9 17.4 18.3 30.7 18.3 19.3 0 34.8-15.6 34.8-34.8 0-10-4.2-18.9-10.9-25.3-6.3-5.9-14.7-9.6-24-9.6-19.2-.1-34.8 15.5-34.8 34.8z"></path><path fill="#fff" d="M846.1 2537.2c0 6 1.5 11.6 4.2 16.6 6.3 5.9 14.7 9.6 24 9.6 19.2 0 34.8-15.6 34.8-34.8 0-6-1.5-11.6-4.2-16.6-6.3-5.9-14.7-9.6-24-9.6-19.2-.1-34.8 15.5-34.8 34.8z"></path><path fill="#adbbc9" d="M4190.1 1169.6c0 8.4 2.1 16.4 5.9 23.3 8.3 15.3 24.5 25.7 43.2 25.7 27.1 0 49.1-22 49.1-49.1 0-14-5.9-26.6-15.3-35.6-8.8-8.4-20.7-13.5-33.8-13.5-27.2.1-49.1 22.1-49.1 49.2z"></path><path fill="#fff" d="M4190.1 1169.6c0 8.4 2.1 16.4 5.9 23.3 8.8 8.4 20.7 13.5 33.8 13.5 27.1 0 49.1-22 49.1-49.1 0-8.4-2.1-16.4-5.9-23.3-8.8-8.4-20.7-13.5-33.8-13.5-27.2 0-49.1 22-49.1 49.1z"></path><path fill="#adbbc9" d="M999.5 2591.3c0 7.6 1.9 14.7 5.3 21 7.5 13.8 22 23.1 38.8 23.1 24.4 0 44.1-19.8 44.1-44.1 0-12.6-5.3-24-13.7-32-7.9-7.5-18.6-12.1-30.4-12.1-24.3 0-44.1 19.7-44.1 44.1z"></path><path fill="#fff" d="M999.5 2591.3c0 7.6 1.9 14.7 5.3 21 7.9 7.5 18.6 12.1 30.4 12.1 24.4 0 44.1-19.7 44.1-44.1 0-7.6-1.9-14.7-5.3-21-7.9-7.5-18.6-12.1-30.4-12.1-24.3 0-44.1 19.7-44.1 44.1z"></path><path fill="#adbbc9" d="M2217 873.7c0 5.6 1.4 10.9 3.9 15.5 5.5 10.2 16.3 17.1 28.8 17.1 18.1 0 32.7-14.7 32.7-32.7 0-9.3-3.9-17.8-10.2-23.7-5.9-5.6-13.8-9-22.5-9-18.1.1-32.7 14.7-32.7 32.8z"></path><path fill="#fff" d="M2217 873.7c0 5.6 1.4 10.9 3.9 15.5 5.9 5.6 13.8 9 22.5 9 18 0 32.7-14.6 32.7-32.7 0-5.6-1.4-10.9-3.9-15.5-5.9-5.6-13.8-9-22.5-9-18.1 0-32.7 14.6-32.7 32.7z"></path><path fill="#adbbc9" d="M4476 3284.9c0 5 1.3 9.7 3.5 13.9 4.9 9.1 14.6 15.3 25.6 15.3 16.1 0 29.1-13.1 29.1-29.1 0-8.3-3.5-15.8-9.1-21.1-5.2-5-12.3-8-20.1-8-15.9-.1-29 12.9-29 29z"></path><path fill="#fff" d="M4476 3284.9c0 5 1.3 9.7 3.5 13.9 5.2 5 12.3 8 20.1 8 16.1 0 29.1-13 29.1-29.1 0-5-1.3-9.7-3.5-13.9-5.2-5-12.3-8-20.1-8-16 0-29.1 13-29.1 29.1z"></path><path fill="#adbbc9" d="M1284.6 2364.3c0 8.2 2.1 15.9 5.7 22.6 8.1 14.9 23.8 25 41.9 25 26.3 0 47.6-21.3 47.6-47.6 0-13.6-5.7-25.9-14.8-34.5-8.6-8.1-20.1-13.1-32.8-13.1-26.2 0-47.6 21.3-47.6 47.6z"></path><path fill="#fff" d="M1284.6 2364.3c0 8.2 2.1 15.9 5.7 22.6 8.6 8.1 20.1 13.1 32.8 13.1 26.3 0 47.6-21.3 47.6-47.6 0-8.2-2.1-15.9-5.7-22.6-8.6-8.1-20.1-13.1-32.8-13.1-26.2 0-47.6 21.3-47.6 47.6z"></path><path fill="#adbbc9" d="M2386.7 1275.3c0 8.4 2.1 16.4 5.9 23.3 8.3 15.3 24.5 25.7 43.2 25.7 27.1 0 49.1-22 49.1-49.1 0-14-5.9-26.6-15.3-35.6-8.8-8.4-20.7-13.5-33.8-13.5-27.1.1-49.1 22.1-49.1 49.2z"></path><path fill="#fff" d="M2386.7 1275.3c0 8.4 2.1 16.4 5.9 23.3 8.8 8.4 20.7 13.5 33.8 13.5 27.1 0 49.1-22 49.1-49.1 0-8.4-2.1-16.4-5.9-23.3-8.8-8.4-20.7-13.5-33.8-13.5-27.1 0-49.1 22-49.1 49.1z"></path><path fill="#adbbc9" d="M2820.7 1087.6c0 8.4 2.1 16.4 5.9 23.3 8.3 15.3 24.5 25.7 43.2 25.7 27.1 0 49.1-22 49.1-49.1 0-14-5.9-26.6-15.3-35.6-8.8-8.4-20.7-13.5-33.8-13.5-27.2.1-49.1 22.1-49.1 49.2z"></path><path fill="#fff" d="M2820.7 1087.6c0 8.4 2.1 16.4 5.9 23.3 8.8 8.4 20.7 13.5 33.8 13.5 27.1 0 49.1-22 49.1-49.1 0-8.4-2.1-16.4-5.9-23.3-8.8-8.4-20.7-13.5-33.8-13.5-27.2 0-49.1 22-49.1 49.1z"></path><path fill="#adbbc9" d="M4925.1 2268.2c0 5.2 1.3 10.1 3.6 14.4 5.1 9.4 15.1 15.9 26.6 15.9 16.7 0 30.3-13.6 30.3-30.3 0-8.6-3.6-16.5-9.4-22-5.4-5.2-12.8-8.3-20.8-8.3-16.8 0-30.3 13.6-30.3 30.3z"></path><path fill="#fff" d="M4925.1 2268.2c0 5.2 1.3 10.1 3.6 14.4 5.4 5.2 12.8 8.3 20.8 8.3 16.7 0 30.3-13.6 30.3-30.3 0-5.2-1.3-10.1-3.6-14.4-5.4-5.2-12.8-8.3-20.8-8.3-16.8 0-30.3 13.6-30.3 30.3z"></path><path fill="#adbbc9" d="M4715.3 2256.1c0 5.2 1.3 10.1 3.6 14.4 5.1 9.4 15.1 15.9 26.6 15.9 16.7 0 30.3-13.6 30.3-30.3 0-8.6-3.6-16.5-9.4-22-5.4-5.2-12.8-8.3-20.8-8.3-16.7 0-30.3 13.5-30.3 30.3z"></path><path fill="#fff" d="M4715.3 2256.1c0 5.2 1.3 10.1 3.6 14.4 5.4 5.2 12.8 8.3 20.8 8.3 16.7 0 30.3-13.6 30.3-30.3 0-5.2-1.3-10.1-3.6-14.4-5.4-5.2-12.8-8.3-20.8-8.3-16.7 0-30.3 13.5-30.3 30.3z"></path><path fill="#adbbc9" d="M1163.2 1731.9c0 5.2 1.3 10.1 3.6 14.4 5.1 9.4 15.1 15.9 26.6 15.9 16.7 0 30.3-13.6 30.3-30.3 0-8.6-3.6-16.5-9.4-22-5.4-5.2-12.8-8.3-20.8-8.3-16.8 0-30.3 13.6-30.3 30.3z"></path><path fill="#fff" d="M1163.2 1731.9c0 5.2 1.3 10.1 3.6 14.4 5.4 5.2 12.8 8.3 20.8 8.3 16.7 0 30.3-13.6 30.3-30.3 0-5.2-1.3-10.1-3.6-14.4-5.4-5.2-12.8-8.3-20.8-8.3-16.8 0-30.3 13.6-30.3 30.3z"></path><path fill="#adbbc9" d="M1478.5 1473.4c0 5.2 1.3 10.1 3.6 14.4 5.1 9.4 15.1 15.9 26.6 15.9 16.7 0 30.3-13.6 30.3-30.3 0-8.6-3.6-16.5-9.4-22-5.4-5.2-12.8-8.3-20.8-8.3-16.8 0-30.3 13.6-30.3 30.3z"></path><path fill="#fff" d="M1478.5 1473.4c0 5.2 1.3 10.1 3.6 14.4 5.4 5.2 12.8 8.3 20.8 8.3 16.7 0 30.3-13.6 30.3-30.3 0-5.2-1.3-10.1-3.6-14.4-5.4-5.2-12.8-8.3-20.8-8.3-16.8 0-30.3 13.6-30.3 30.3z"></path><path fill="#adbbc9" d="M3385.8 1249.1c0 5.2 1.3 10.1 3.6 14.4 5.1 9.4 15.1 15.9 26.6 15.9 16.7 0 30.3-13.6 30.3-30.3 0-8.6-3.6-16.5-9.4-22-5.4-5.2-12.8-8.3-20.8-8.3-16.8 0-30.3 13.5-30.3 30.3z"></path><path fill="#fff" d="M3385.8 1249.1c0 5.2 1.3 10.1 3.6 14.4 5.4 5.2 12.8 8.3 20.8 8.3 16.7 0 30.3-13.6 30.3-30.3 0-5.2-1.3-10.1-3.6-14.4-5.4-5.2-12.8-8.3-20.8-8.3-16.8 0-30.3 13.5-30.3 30.3z"></path><circle cx="3934.7" cy="1036.4" r="20.1" fill="#fff"></circle><circle cx="3957.7" cy="1789.8" r="20.1" fill="#fff"></circle><circle cx="1827.4" cy="1512.3" r="40.2" fill="#fff"></circle><circle cx="979.1" cy="2234.4" r="40.2" fill="#fff"></circle><circle cx="1462.4" cy="1696.7" r="20.1" fill="#fff"></circle><circle cx="1047.4" cy="3017.9" r="49.1" fill="#fff"></circle><circle cx="2084.1" cy="1951.9" r="40.2" fill="#fff"></circle><circle cx="4170" cy="1311.1" r="20.1" fill="#fff"></circle><circle cx="2867.9" cy="764.4" r="49.1" fill="#fff"></circle><circle cx="3323.2" cy="2050.7" r="23.1" fill="#fff"></circle><circle cx="2991.6" cy="1760.7" r="23.1" fill="#fff"></circle><circle cx="3060.7" cy="2156.8" r="16.9" fill="#fff"></circle><circle cx="3361.2" cy="1832.7" r="16.9" fill="#fff"></circle><circle cx="2790.1" cy="1909.3" r="20.1" fill="#fff"></circle><path fill="#c1a39f" d="M1257.8 2945c0-2.3-.5-6.4-2.2-10-6.5 11.4-17.3 25-26 39.1 14.9-6 34.2-9.2 28.2-29.1z"></path></g></svg>