<svg xmlns="http://www.w3.org/2000/svg" enable-background="new 0 0 1000 1000" viewBox="0 0 1000 1000" id="socks"><path fill="#34323a" d="M96.164 293.873s2.902.989 8.43 2.507c5.52 1.543 13.68 3.56 24.126 5.797 5.235 1.073 11.019 2.286 17.361 3.39 3.164.582 6.457 1.18 9.892 1.708 3.428.56 6.965 1.202 10.64 1.755 14.679 2.346 31.343 4.274 49.507 6.289 18.183 1.922 37.942 3.332 58.841 4.607 20.918 1.056 42.977 2.048 65.827 2.287l8.6.15 4.325.076 4.344.004 17.523-.003c2.939-.001 5.886.043 8.843.007l8.894-.125 17.914-.251 36.216-1.003 36.487-1.618c12.171-.723 24.347-1.357 36.466-2.149l36.161-2.572 35.57-2.933 34.691-3.255 8.507-.799 8.423-.885 16.603-1.753 16.254-1.689c5.356-.55 10.632-1.223 15.846-1.816l30.389-3.469 28.372-3.532c9.089-1.18 17.839-2.072 26.112-3.246l23.544-3.069 20.715-2.682 17.574-2.397c10.608-1.476 18.969-2.515 24.665-3.256l8.744-1.088-8.563 2.059c-5.591 1.311-13.784 3.281-24.245 5.636l-17.321 3.947-20.49 4.204-23.321 4.746-6.246 1.229-6.414 1.175-13.281 2.407c-9.054 1.6-18.473 3.357-28.251 5l-30.329 4.794c-5.21.791-10.482 1.665-15.837 2.419l-16.265 2.229-16.628 2.25-8.438 1.136-8.534.983c-11.431 1.291-23.042 2.714-34.818 3.952l-35.754 3.385-36.394 2.743c-3.047.251-6.104.413-9.164.572l-9.183.497-18.388.994c-12.268.585-24.549.935-36.775 1.361l-18.312.328c-6.088.088-12.156.25-18.205.232l-18.066-.067-8.967-.034c-2.981-.017-5.954-.112-8.918-.165l-17.667-.435-4.378-.113-4.361-.184-8.67-.366c-23.026-.898-45.256-2.594-66.292-4.52-10.511-1.093-20.735-2.096-30.589-3.44-4.928-.655-9.782-1.185-14.526-1.911l-13.962-2.043c-4.559-.669-9.006-1.468-13.36-2.17l-6.444-1.111-6.271-1.199c-4.124-.808-8.15-1.53-12.045-2.35a81180.4 81180.4 0 0 1-11.336-2.404c-7.307-1.646-14.139-3.197-20.398-4.888-6.281-1.585-12.001-3.238-17.167-4.707-10.317-3.011-18.275-5.853-23.666-7.845-5.384-2.024-8.167-3.313-8.167-3.313z"></path><path fill="#ff2727" d="M276.117 415.789s.645-94.408 14.716-108.479c14.071-14.071 29.6-9.793 33.619-5.774s14.888 14.467 14.888 14.467-14.102-5.084-20.794 1.607-17.311 102.883-17.311 102.883l-25.118-4.704z"></path><path fill="none" stroke="#34323a" stroke-linecap="round" stroke-linejoin="round" stroke-miterlimit="10" stroke-width="10" d="M276.117 415.789s.645-94.408 14.716-108.479c14.071-14.071 29.6-9.793 33.619-5.774s14.888 14.467 14.888 14.467-14.102-5.084-20.794 1.607-17.311 102.883-17.311 102.883l-25.118-4.704z"></path><path fill="#ff2727" d="m196.399 505.63 19.501 63.524a80.38 80.38 0 0 1-20.356 80.775l-24.772 24.468a58.37 58.37 0 0 0-13.994 61.04l.466 1.313c12.643 35.644 54.083 51.295 86.964 32.998l96.677-53.799c33.092-18.415 47.229-58.638 32.934-93.707 0 0-32.452-74.945-42.737-100.176-6.785-16.646-30.351-65.087-30.351-65.087L196.399 505.63z"></path><path fill="#c92020" d="M373.82 622.242s-32.452-74.945-42.737-100.176c-6.785-16.646-30.351-65.087-30.351-65.087l-26.533 12.373c6.396 13.505 13.258 28.282 16.437 36.08 10.284 25.23 42.737 100.176 42.737 100.176 14.295 35.07.159 75.292-32.934 93.707l-96.677 53.799c-9.866 5.49-20.5 7.903-30.898 7.657 18.588 17.549 47.257 22.382 71.345 8.977l96.677-53.799c33.092-18.415 47.229-58.637 32.934-93.707z"></path><path fill="#c92020" d="M261.922 510.499c3.012-9.36 10.814-8.45 17.936-8.364 7.767 1.469 12.524-2.885 16.482-7.686 6.468.581 10.394-3.023 13.573-6.329 1.567-1.134 3.64-.808 5.425-.671-7.52-15.903-14.606-30.47-14.606-30.47L196.399 505.63l8.829 28.762c1.753-1.565 7.101 3.074 8.702-1.514 5.25 1.134 4.673-12.127 13.573-6.329 7.964 3.79 8.352-9.932 16.482-7.686 2.939-8.888 13.351-2.379 17.937-8.364z"></path><path fill="none" stroke="#34323a" stroke-linecap="round" stroke-linejoin="round" stroke-miterlimit="10" stroke-width="12" d="m196.399 505.63 19.501 63.524a80.38 80.38 0 0 1-20.356 80.775l-24.772 24.468a58.37 58.37 0 0 0-13.994 61.04l.466 1.313c12.643 35.644 54.083 51.295 86.964 32.998l96.677-53.799c33.092-18.415 47.229-58.638 32.934-93.707 0 0-32.452-74.945-42.737-100.176-6.785-16.646-30.351-65.087-30.351-65.087L196.399 505.63z"></path><path fill="#fff" d="M318.865 466.987c.095.203-3.391-4.108-3.393 1.582.421 6.599-5.681 1.739-9.21 4.295-3.18 3.306-7.106 6.91-13.573 6.329-3.958 4.801-8.715 9.155-16.482 7.686-7.122-.086-14.924-.996-17.936 8.364-4.586 5.985-14.999-.524-17.936 8.364-8.13-2.247-8.518 11.475-16.482 7.686-8.9-5.798-8.323 7.463-13.573 6.329-2.021 5.79-10.016-3.127-9.21 4.295-.386 4.867-5.334-2.58-3.393 1.582-3.146.419-2.976 7.496-8.38 1.674-2.355.716-4.426 1.095-7.597-2.328-.664.265-1.258.32-2.039-.448-.781-.768-1.749-2.36-3.16-5.387l-2.8-6.004-3.124-6.7-3.035-6.51-.971-2.083-5.188-11.126-2.8-6.004c-.125-.268-2.898-6.698-2.053-5.793 1.442 2.186-.791-3.93.925-1.94 1.881 2.344 1.752.018 1.592-2.672.149-2.029.553-3.807 1.508-4.644-.494-6.825 4.459-2.917 6.669-5.344.004.008.661-1.746 3.393-1.582 1.104-3.327 5.476-2.178 9.21-4.295 4.236-1.041 7.75-5.529 13.573-6.329 3.603-5.563 10.582-5.151 16.482-7.686 5.188-4.062 11.358-6.65 17.936-8.364 5.759-3.469 12.332-5.195 17.936-8.364 6.528-1.189 12.409-3.13 16.482-7.686 3.37-6.061 8.102-7.938 13.573-6.329 5.558 1.794 6.334-4.769 9.21-4.295 3.252 1.279 2.798-2.859 3.393-1.582 3.869 1.131 8.804 5.001 8.38-1.674 2.641-.103 6.594 3.556 7.597 2.328 2.798 2.621 3.071 1.271 5.199 5.835l2.8 6.004 6.16 13.209 6.16 13.209 2.8 6.004c.222.476 2.245 6.75 1.128 7.733 1.214 5.981-1.376 5.246-3.1 7.316-1.596 2.349-3.834 4.265-6.671 5.345z"></path><path fill="#d6d6d6" d="m327.682 446.973.067.143-.067-.143zM270.918 427.172l.097.209-.083-.178-.008-.017-.006-.014zM327.749 447.116l.027.058-.027-.058zM318.546 427.381l-.093-.2.013.027.08.173zM309.272 407.491l-.049-.105.049.105zM327.776 447.174l.024.052-.024-.052zM309.524 408.033l-.253-.542.253.542zM309.532 408.049l-.007-.016.007.016zM309.223 407.386c-.166-.354-.113-.241 0 0z"></path><path fill="#d6d6d6" d="m327.506 446.594.177.379-2.976-6.383-6.24-13.382-.017-.036.004.009a1.03 1.03 0 0 1-.02-.044l-6.046-12.966-2.855-6.122.055.118c-2.128-4.564-2.401-3.213-5.199-5.835-1.003 1.228-4.956-2.431-7.597-2.328.424 6.675-4.512 2.805-8.38 1.674-.595-1.276-.141 2.862-3.393 1.582-2.877-.474-3.652 6.089-9.21 4.295-4.729-1.391-8.903-.17-12.126 4.098l1.174 2.518 6.046 12.966.022.048.008.017 6.243 13.388 2.976 6.383.067.143.027.058.024.052v.001c.008.018.009.019 0 0v-.001l-.024-.052-.027-.058-.067-.143-.177-.379c.222.476 2.245 6.75 1.128 7.733 1.214 5.981-1.376 5.246-3.1 7.316-1.594 2.348-3.831 4.263-6.669 5.344.095.203-3.391-4.108-3.393 1.582.421 6.599-5.681 1.739-9.21 4.295-3.18 3.306-7.106 6.91-13.573 6.329-3.958 4.801-8.715 9.155-16.482 7.686-7.122-.086-14.924-.996-17.936 8.364-4.586 5.985-14.999-.524-17.936 8.364-8.13-2.247-8.518 11.475-16.482 7.686-1.207-.786-2.235-1.213-3.132-1.381l.51 1.094 2.8 6.004c1.412 3.027 2.379 4.619 3.16 5.387.781.768 1.375.713 2.039.448 3.171 3.423 5.242 3.044 7.597 2.328 5.404 5.822 5.234-1.254 8.38-1.674-1.941-4.163 3.007 3.285 3.393-1.582-.805-7.422 7.189 1.495 9.21-4.295 5.25 1.134 4.673-12.127 13.573-6.329 7.964 3.79 8.352-9.932 16.482-7.686 2.938-8.888 13.35-2.379 17.936-8.364 3.012-9.36 10.814-8.45 17.936-8.364 7.767 1.469 12.524-2.885 16.482-7.686 6.468.581 10.394-3.023 13.573-6.329 3.53-2.555 9.632 2.304 9.21-4.295.002-5.691 3.488-1.379 3.393-1.582 2.837-1.081 5.075-2.996 6.669-5.344 1.724-2.07 4.313-1.336 3.1-7.316 1.117-.983-.905-7.257-1.127-7.733zM327.801 447.226c0 .001 0 .001 0 0 0 .001 0 .001 0 0zM327.801 447.227c.009.019.008.019 0 0z"></path><path fill="none" stroke="#34323a" stroke-linecap="round" stroke-linejoin="round" stroke-miterlimit="10" stroke-width="10" d="M318.865 466.987c.095.203-3.391-4.108-3.393 1.582.421 6.599-5.681 1.739-9.21 4.295-3.18 3.306-7.106 6.91-13.573 6.329-3.958 4.801-8.715 9.155-16.482 7.686-7.122-.086-14.924-.996-17.936 8.364-4.586 5.985-14.999-.524-17.936 8.364-8.13-2.247-8.518 11.475-16.482 7.686-8.9-5.798-8.323 7.463-13.573 6.329-2.021 5.79-10.016-3.127-9.21 4.295-.386 4.867-5.334-2.58-3.393 1.582-3.146.419-2.976 7.496-8.38 1.674-2.355.716-4.426 1.095-7.597-2.328-.664.265-1.258.32-2.039-.448-.781-.768-1.749-2.36-3.16-5.387l-2.8-6.004-3.124-6.7-3.035-6.51-.971-2.083-5.188-11.126-2.8-6.004c-.125-.268-2.898-6.698-2.053-5.793 1.442 2.186-.791-3.93.925-1.94 1.881 2.344 1.752.018 1.592-2.672.149-2.029.553-3.807 1.508-4.644-.494-6.825 4.459-2.917 6.669-5.344.004.008.661-1.746 3.393-1.582 1.104-3.327 5.476-2.178 9.21-4.295 4.236-1.041 7.75-5.529 13.573-6.329 3.603-5.563 10.582-5.151 16.482-7.686 5.188-4.062 11.358-6.65 17.936-8.364 5.759-3.469 12.332-5.195 17.936-8.364 6.528-1.189 12.409-3.13 16.482-7.686 3.37-6.061 8.102-7.938 13.573-6.329 5.558 1.794 6.334-4.769 9.21-4.295 3.252 1.279 2.798-2.859 3.393-1.582 3.869 1.131 8.804 5.001 8.38-1.674 2.641-.103 6.594 3.556 7.597 2.328 2.798 2.621 3.071 1.271 5.199 5.835l2.8 6.004 6.16 13.209 6.16 13.209 2.8 6.004c.222.476 2.245 6.75 1.128 7.733 1.214 5.981-1.376 5.246-3.1 7.316-1.596 2.349-3.834 4.265-6.671 5.345z"></path><path fill="#fff" d="m275.085 591.565 22.433 17.993 27.539-8.28-10.18 26.895 16.384 23.633-28.724-1.371-17.414 22.885-7.572-27.741-27.146-9.49 24.044-15.774z"></path><path fill="none" stroke="#fff" stroke-linecap="round" stroke-linejoin="round" stroke-miterlimit="10" stroke-width="10" d="m275.085 591.565 22.433 17.993 27.539-8.28-10.18 26.895 16.384 23.633-28.724-1.371-17.414 22.885-7.572-27.741-27.146-9.49 24.044-15.774z"></path><circle cx="251.74" cy="607.297" r="6.718" fill="#fff"></circle><circle cx="260.527" cy="664.7" r="6.718" fill="#fff"></circle><circle cx="314.383" cy="671.069" r="6.718" fill="#fff"></circle><circle cx="339.34" cy="616.963" r="6.718" fill="#fff"></circle><circle cx="301.235" cy="585.486" r="6.718" fill="#fff"></circle><circle cx="169.467" cy="709.977" r="5.443" fill="#fff"></circle><circle cx="231.391" cy="754.311" r="5.443" fill="#fff"></circle><circle cx="246.199" cy="746.388" r="4.137" fill="#fff"></circle><circle cx="172.937" cy="730.369" r="7.336" fill="#fff"></circle><circle cx="211.039" cy="756.165" r="7.336" fill="#fff"></circle><circle cx="189.503" cy="746.935" r="9.229" fill="#fff"></circle><path fill="none" stroke="#34323a" stroke-linecap="round" stroke-linejoin="round" stroke-miterlimit="10" stroke-width="6" d="m201.793 478.61 3.699 1.447c4.104 1.606 6.801.336 6.318-7.094M251.394 466.09c4.104 1.606 7.732 5.657 8.559-2.015l.391-1.44s-.316-5.657 7.997 0"></path><path fill="#ff2727" d="M501.472 419.61c-3.135 4.224-9.138 5.044-13.291 1.816a2274.24 2274.24 0 0 0-12.752-9.844c-22.965-17.905-55.146-10.329-72.208 14.026-17.069 24.26-13.074 53.504 9.624 70.43 25.463 18.909 51.3 39.862 77.118 60.496 14.55 11.724 35.17 8.906 46.041-6.291 19.336-26.803 38.605-53.92 58.061-78.967 17.325-22.395 13.329-51.639-9.624-70.43-22.97-18.885-56.004-17.549-73.324 5.86-3.22 4.272-6.434 8.577-9.645 12.904z"></path><path fill="#c92020" d="M584.44 400.846c-20.007-16.449-47.646-17.55-65.889-2.093 4.605 9.632 7.857 20.278 9.409 31.64 6.898 50.484-22.287 96.367-65.56 104.094 9.178 7.32 18.37 14.703 27.561 22.048 14.549 11.724 35.17 8.906 46.041-6.291 19.336-26.803 38.605-53.92 58.062-78.967 17.324-22.395 13.328-51.64-9.624-70.431z"></path><circle cx="586.078" cy="415.789" r="4.704" fill="none" stroke="#fff" stroke-linecap="round" stroke-linejoin="round" stroke-miterlimit="10" stroke-width="7"></circle><circle cx="582.32" cy="457.775" r="4.704" fill="#fff"></circle><path fill="none" stroke="#fff" stroke-linecap="round" stroke-linejoin="round" stroke-miterlimit="10" stroke-width="6" d="m473.124 435.971 15.152 52.876M488.172 437.631l-9.908 17.866-17.866-9.907M503.18 540.856l-14.904-52.009M515.058 531.452l-17.867-9.908-9.908 17.867M473.124 435.971l15.152 52.876"></path><path fill="none" stroke="#fff" stroke-linecap="round" stroke-linejoin="round" stroke-miterlimit="10" stroke-width="6" d="m488.172 437.631-9.908 17.866-17.866-9.907M503.18 540.856l-14.904-52.009M515.058 531.452l-17.867-9.908-9.908 17.867M461.278 536.218l26.45-47.697M451.429 524.191l19.639-5.627 5.628 19.639M514.177 440.824l-26.449 47.697M498.759 438.839l5.628 19.639 19.64-5.628M539.976 474.501 487.1 489.653M538.618 488.965l-17.867-9.908 9.908-17.866M435.09 504.557l52.01-14.904M444.797 515.851l9.907-17.867-17.866-9.907M440.681 461.885l47.697 26.449M452.057 452.222l5.628 19.639-19.639 5.628M536.075 514.784l-47.697-26.45M537.41 499.552l-19.64 5.628 5.628 19.64"></path><path fill="none" stroke="#34323a" stroke-linecap="round" stroke-linejoin="round" stroke-miterlimit="10" stroke-width="12" d="M501.472 419.61c-3.135 4.224-9.138 5.044-13.291 1.816a2274.24 2274.24 0 0 0-12.752-9.844c-22.965-17.905-55.146-10.329-72.208 14.026h0c-17.069 24.26-13.074 53.504 9.624 70.43 25.463 18.909 51.3 39.862 77.118 60.496 14.55 11.724 35.17 8.906 46.041-6.291 19.336-26.803 38.605-53.92 58.061-78.967 17.325-22.395 13.329-51.639-9.624-70.43h0c-22.97-18.885-56.004-17.549-73.324 5.86-3.22 4.272-6.434 8.577-9.645 12.904z"></path><circle cx="549.784" cy="400.905" r="5.73" fill="#fff"></circle><path fill="#c92020" d="m501.472 419.61-13.292 1.816-11.484-43.254 22.063-8.853z"></path><path fill="none" stroke="#34323a" stroke-linecap="round" stroke-linejoin="round" stroke-miterlimit="10" stroke-width="10" d="m501.472 419.61-13.292 1.816-11.484-43.254 22.063-8.853z"></path><path fill="#9d503a" d="m503.18 373.13-35.58 12.318-21.316-103.587 56.866 4.856z"></path><path fill="#d17f6b" d="m464.568 283.423-18.284-1.562L467.6 385.448l16.768-5.805z"></path><path fill="none" stroke="#34323a" stroke-linecap="round" stroke-linejoin="round" stroke-miterlimit="10" stroke-width="10" d="m503.18 373.13-35.58 12.318-21.316-103.587 56.866 4.856z"></path><path fill="#9d503a" d="m317.655 346.288-27.177 18.916-37.774-113.067 48.19-2.719z"></path><path fill="#d17f6b" d="m268.198 251.262-15.494.875 37.774 113.067 12.808-8.915z"></path><path fill="none" stroke="#34323a" stroke-linecap="round" stroke-linejoin="round" stroke-miterlimit="10" stroke-width="10" d="m317.655 346.288-27.177 18.916-37.774-113.067 48.19-2.719z"></path><path fill="#ff2727" d="M791.656 367.725s-14.833-93.238-30.859-105.033c-16.026-11.795-30.736-5.231-34.105-.654-3.369 4.577-12.544 16.541-12.544 16.541s13.177-7.147 20.799-1.537 32.583 99.11 32.583 99.11l24.126-8.427z"></path><path fill="none" stroke="#34323a" stroke-linecap="round" stroke-linejoin="round" stroke-miterlimit="10" stroke-width="10" d="M791.656 367.725s-14.833-93.238-30.859-105.033c-16.026-11.795-30.736-5.231-34.105-.654-3.369 4.577-12.544 16.541-12.544 16.541s13.177-7.147 20.799-1.537 32.583 99.11 32.583 99.11l24.126-8.427z"></path><path fill="#9d503a" d="m768.913 321.995-32.677 5.348 14.672-118.304 44.652 18.326z"></path><path fill="#d17f6b" d="m765.265 214.932-14.357-5.893-14.672 118.304 15.4-2.521z"></path><path fill="none" stroke="#34323a" stroke-linecap="round" stroke-linejoin="round" stroke-miterlimit="10" stroke-width="10" d="m768.913 321.995-32.677 5.348 14.672-118.304 44.652 18.326z"></path><path fill="#ff2727" d="m701.081 450.97 19.501 63.524a80.38 80.38 0 0 1-20.356 80.775l-24.772 24.468a58.37 58.37 0 0 0-13.994 61.04l.466 1.313c12.643 35.644 54.083 51.295 86.964 32.998l96.677-53.799c33.093-18.415 47.229-58.638 32.934-93.707 0 0-32.452-74.945-42.737-100.176-6.785-16.646-30.351-65.087-30.351-65.087L701.081 450.97z"></path><path fill="#c92020" d="M878.501 567.582s-32.452-74.945-42.737-100.176c-6.785-16.646-30.351-65.087-30.351-65.087l-40.957 19.099c5.539 11.775 10.992 23.632 13.724 30.335 10.284 25.23 42.737 100.176 42.737 100.176 14.295 35.07.159 75.292-32.933 93.707l-96.677 53.799a60.956 60.956 0 0 1-14.663 5.821c18.553 18.251 47.767 23.455 72.246 9.833l96.677-53.799c33.093-18.416 47.229-58.638 32.934-93.708z"></path><path fill="#c92020" d="M751.78 467.311c.734 6.023 1.936-.373 3.397-3.001 1.461.421 3.181-3.374 4.953-2.27 1.772 1.93 3.595 6.833 5.262-.314 1.667 2.258 3.178 7.023 4.324-2.779.753-2.579 1.806-3.634 3.072-4.483 1.266-.848 2.747-1.49 4.355-3.242 3.217 2.236 6.948-5.681 10.509-.64 3.884 4.255 7.014-.429 9.669-1.492 2.655-1.505 4.833-3.794 6.813-6.194 6.468.581 10.394-3.023 13.573-6.329 1.084-.785 2.411-.87 3.717-.802-8.017-17.013-16.011-33.447-16.011-33.447L701.081 450.97l11.052 36.004c.191-.267.329-.694.381-1.353-.403-3.711 1.395-3.337 3.545-2.76 2.151 1.069 4.655-3.866 5.665-1.535 1.313 2.004 2.261-1.313 3.084-1.696.823-1.963 1.521-4.697 2.334-3.218.812-1.162 1.739 4.262 3.018-.677 1.28.556 2.912-7.079 5.137-.738 1.991 2.794 3.508 4.437 4.792-.935 1.283-4.615 2.333-5.695 3.387-2.33 1.054-7.918 2.114-3.071 3.418-6.109 1.305-6.13 2.854-10.444 4.886 1.688z"></path><path fill="none" stroke="#34323a" stroke-linecap="round" stroke-linejoin="round" stroke-miterlimit="10" stroke-width="12" d="m701.081 450.97 19.501 63.524a80.38 80.38 0 0 1-20.356 80.775l-24.772 24.468a58.37 58.37 0 0 0-13.994 61.04l.466 1.313c12.643 35.644 54.083 51.295 86.964 32.998l96.677-53.799c33.093-18.415 47.229-58.638 32.934-93.707 0 0-32.452-74.945-42.737-100.176-6.785-16.646-30.351-65.087-30.351-65.087L701.081 450.97z"></path><path fill="#fff" d="M823.546 412.328c.095.203-3.391-4.108-3.393 1.582.421 6.599-5.681 1.739-9.21 4.295-3.18 3.306-7.106 6.91-13.573 6.329-3.958 4.801-8.715 9.155-16.482 7.686-7.122-.086-14.924-.996-17.936 8.364-4.586 5.985-14.999-.524-17.936 8.364-8.13-2.247-8.518 11.475-16.482 7.686-8.9-5.798-8.323 7.463-13.573 6.329-2.021 5.79-10.016-3.127-9.21 4.295-.386 4.867-5.334-2.58-3.393 1.582-3.146.419-2.976 7.496-8.38 1.674-2.355.716-4.426 1.095-7.597-2.328-.664.266-1.258.32-2.039-.448-.781-.768-1.749-2.36-3.16-5.387l-2.8-6.004-3.124-6.7-3.036-6.51-.971-2.083-5.188-11.126-2.8-6.004c-.125-.268-2.898-6.698-2.053-5.793 1.442 2.186-.791-3.93.925-1.94 1.881 2.344 1.752.018 1.592-2.672.149-2.029.554-3.807 1.508-4.644-.494-6.825 4.459-2.917 6.669-5.344.004.008.661-1.746 3.393-1.582 1.104-3.327 5.476-2.178 9.211-4.295 4.236-1.041 7.75-5.529 13.573-6.329 3.603-5.563 10.582-5.151 16.482-7.686 5.188-4.062 11.358-6.65 17.936-8.364 5.759-3.469 12.332-5.195 17.936-8.364 6.527-1.189 12.409-3.13 16.482-7.686 3.37-6.061 8.102-7.938 13.573-6.329 5.558 1.794 6.334-4.769 9.21-4.295 3.252 1.279 2.798-2.859 3.393-1.582 3.869 1.131 8.804 5.001 8.38-1.674 2.641-.103 6.594 3.556 7.597 2.328 2.798 2.621 3.071 1.271 5.199 5.835l2.8 6.004 6.16 13.209 6.16 13.209 2.8 6.004c.222.476 2.245 6.75 1.128 7.733 1.214 5.981-1.376 5.246-3.1 7.316-1.596 2.348-3.833 4.264-6.671 5.345z"></path><path fill="#d6d6d6" d="m832.431 392.457.027.058-.027-.058zM832.458 392.515l.024.052-.024-.052zM832.482 392.567v.001-.001zM832.364 392.313l.067.143a13.36 13.36 0 0 1-.067-.143zM813.904 352.727c-.165-.355-.112-.242 0 0zM823.228 372.721l-.093-.2.013.027c.026.059.052.113.08.173zM832.482 392.568c.009.019.009.018 0 0zM774.592 365.76l.097.209-.083-.178-.008-.017-.006-.014z"></path><path fill="#d6d6d6" d="m832.187 391.935.177.379-2.977-6.383-6.24-13.382-.017-.036.004.009a1.03 1.03 0 0 1-.02-.044l-6.046-12.966-2.855-6.122.055.118c-2.128-4.564-2.401-3.213-5.199-5.835-1.003 1.228-4.956-2.431-7.597-2.328.424 6.675-4.512 2.804-8.38 1.674-.595-1.276-.141 2.862-3.393 1.582-2.877-.474-3.652 6.089-9.21 4.295-4.073-1.198-7.735-.46-10.732 2.494l4.819 10.335.022.048.008.017 6.243 13.388 2.976 6.383.067.143.027.058.024.052v.001c.009.018.009.019 0 0v-.001l-.024-.052-.027-.058-.067-.143-.177-.379c.222.476 2.245 6.75 1.128 7.733 1.214 5.981-1.376 5.246-3.1 7.316-1.594 2.348-3.831 4.263-6.669 5.344.095.203-3.391-4.108-3.393 1.582.421 6.599-5.681 1.739-9.211 4.295-3.18 3.306-7.106 6.91-13.573 6.329-3.958 4.801-8.715 9.155-16.482 7.686-7.122-.086-14.924-.996-17.936 8.364-4.586 5.985-14.999-.524-17.936 8.364-8.13-2.247-8.518 11.475-16.482 7.686-2.274-1.482-3.928-1.714-5.22-1.265l.519 1.114-.039-.083.042.089.012.026 3.07 6.584 2.8 6.004c1.412 3.027 2.38 4.619 3.16 5.387.781.768 1.375.713 2.039.448 3.171 3.423 5.242 3.044 7.597 2.328 5.404 5.822 5.234-1.254 8.38-1.674-1.941-4.163 3.007 3.285 3.393-1.582-.805-7.422 7.189 1.495 9.21-4.295 5.25 1.134 4.673-12.127 13.573-6.329 7.964 3.79 8.352-9.932 16.482-7.686 2.938-8.888 13.35-2.379 17.936-8.364 3.012-9.36 10.814-8.45 17.936-8.364 7.767 1.469 12.524-2.885 16.482-7.686 6.468.581 10.394-3.023 13.573-6.329 3.53-2.555 9.632 2.304 9.21-4.295.002-5.691 3.488-1.379 3.393-1.582 2.837-1.081 5.075-2.996 6.669-5.344 1.724-2.07 4.313-1.336 3.1-7.316 1.121-.983-.902-7.257-1.124-7.732zM814.213 353.39zM814.206 353.374l-.253-.542.253.542zM813.953 352.832l-.049-.105.049.105z"></path><path fill="none" stroke="#34323a" stroke-linecap="round" stroke-linejoin="round" stroke-miterlimit="10" stroke-width="10" d="M823.546 412.328c.095.203-3.391-4.108-3.393 1.582.421 6.599-5.681 1.739-9.21 4.295-3.18 3.306-7.106 6.91-13.573 6.329-1.979 2.4-4.158 4.689-6.813 6.194-2.655 1.062-5.786 5.747-9.669 1.492-3.561-5.042-7.292 2.875-10.509.64-1.609 1.752-3.089 2.393-4.355 3.242-1.266.848-2.319 1.903-3.072 4.483-1.147 9.802-2.657 5.037-4.324 2.779-1.667 7.147-3.49 2.244-5.262.314-1.772-1.104-3.492 2.691-4.953 2.27-1.461 2.628-2.662 9.023-3.397 3.001-2.032-12.132-3.581-7.818-4.885-1.688-1.304 3.039-2.364-1.809-3.418 6.109-1.054-3.366-2.104-2.285-3.387 2.33-1.283 5.371-2.801 3.729-4.792.935-2.225-6.34-3.858 1.294-5.137.738-1.28 4.939-2.206-.485-3.018.677-.812-1.48-1.51 1.255-2.334 3.218-.823.383-1.772 3.7-3.084 1.696-1.011-2.331-3.515 2.604-5.665 1.535-2.151-.578-3.948-.952-3.545 2.76-.386 4.867-5.334-2.58-3.393 1.582-3.146.419-2.976 7.496-8.38 1.674-2.355.716-4.426 1.095-7.597-2.328-.664.266-1.258.32-2.039-.448-.781-.768-1.749-2.36-3.16-5.387l-2.8-6.004-3.124-6.7-3.036-6.51-.971-2.083-5.188-11.126-2.8-6.004c-.125-.268-2.898-6.698-2.053-5.793 1.442 2.186-.791-3.93.925-1.94 1.881 2.344 1.752.018 1.592-2.672.149-2.029.554-3.807 1.508-4.644-.494-6.825 4.459-2.917 6.669-5.344.004.008.661-1.746 3.393-1.582 1.104-3.327 5.476-2.178 9.211-4.295 4.236-1.041 7.75-5.529 13.573-6.329 3.603-5.563 10.582-5.151 16.482-7.686 5.188-4.062 11.358-6.65 17.936-8.364 5.759-3.469 12.332-5.195 17.936-8.364 6.527-1.189 12.409-3.13 16.482-7.686 3.37-6.061 8.102-7.938 13.573-6.329 5.558 1.794 6.334-4.769 9.21-4.295 3.252 1.279 2.798-2.859 3.393-1.582 3.869 1.131 8.804 5.001 8.38-1.674 2.641-.103 6.594 3.556 7.597 2.328 2.798 2.621 3.071 1.271 5.199 5.835l2.8 6.004 6.16 13.209 6.16 13.209 2.8 6.004c.222.476 2.245 6.75 1.128 7.733 1.214 5.981-1.376 5.246-3.1 7.316-1.596 2.347-3.833 4.263-6.671 5.344z"></path><path fill="none" stroke="#fff" stroke-linecap="round" stroke-linejoin="round" stroke-miterlimit="10" stroke-width="6" d="m798.072 602.755-59.006 40.415M788.651 653.137l-40.415-59.006"></path><circle cx="774.851" cy="592.259" r="3.898" fill="#fff"></circle><circle cx="776.959" cy="580.986" r="3.18" fill="#fff"></circle><circle cx="772.028" cy="607.355" r="5.734" fill="#fff"></circle><circle cx="763.222" cy="654.45" r="3.898" fill="#fff"></circle><circle cx="761.114" cy="665.723" r="3.18" fill="#fff"></circle><circle cx="766.045" cy="639.353" r="5.734" fill="#fff"></circle><circle cx="737.868" cy="617.433" r="3.898" fill="#fff"></circle><circle cx="726.595" cy="615.325" r="3.18" fill="#fff"></circle><circle cx="752.964" cy="620.256" r="5.734" fill="#fff"></circle><circle cx="800.059" cy="629.062" r="3.898" fill="#fff"></circle><circle cx="811.332" cy="631.17" r="3.18" fill="#fff"></circle><circle cx="784.962" cy="626.239" r="5.734" fill="#fff"></circle><path fill="none" stroke="#fff" stroke-linecap="round" stroke-linejoin="round" stroke-miterlimit="10" stroke-width="4" d="m785.15 504.378 29.24 46.543M823.041 513.029l-46.542 29.241"></path><circle cx="776.068" cy="522.088" r="2.996" fill="#fff"></circle><circle cx="767.475" cy="520.127" r="2.444" fill="#fff"></circle><circle cx="787.576" cy="524.716" r="4.407" fill="#fff"></circle><circle cx="823.473" cy="532.911" r="2.996" fill="#fff"></circle><circle cx="832.066" cy="534.873" r="2.444" fill="#fff"></circle><circle cx="811.966" cy="530.284" r="4.407" fill="#fff"></circle><circle cx="794.275" cy="551.255" r="2.996" fill="#fff"></circle><circle cx="792.313" cy="559.848" r="2.444" fill="#fff"></circle><circle cx="796.902" cy="539.748" r="4.407" fill="#fff"></circle><circle cx="805.098" cy="503.851" r="2.996" fill="#fff"></circle><circle cx="807.06" cy="495.258" r="2.444" fill="#fff"></circle><circle cx="802.471" cy="515.358" r="4.407" fill="#fff"></circle><path fill="none" stroke="#34323a" stroke-linecap="round" stroke-linejoin="round" stroke-miterlimit="10" stroke-width="6" d="M698.02 416.906s11.444 13.57 11.444-2.611c0 0-.723-9.567 7.369-2.631 7.451 6.387 6.806.379 7.862-6.936M778.463 401.096s9.382 9.471 12.211-2.179c0 0-1.066-6.713 4.291-3.865 3.1 1.648 8.314 4.863 7.174-5.337"></path><path fill="#fff" d="M845.281 444.647c0 3.609-.186 6.9-.541 6.779-.177.66-.397 4.946-.657 5.126-.26-.567-.559 1.659-.896-1.497-.674 1.529-1.499 2.816-2.457 3.454-.958 3.47-2.048 1.514-3.254 5.045-1.206 7.108-2.526.769-3.944 3.265-1.418 2.091-2.933 3.887-4.527 2.465-.797-1.344-1.614.678-2.448 2.22s-1.687 2.604-2.554-.662c-.867 2.953-1.75 5.373-2.646 3.031-.896 3.982-1.805-.569-2.725-2.488-1.84 3.101-3.636 1.492-5.371 1.428-1.735-2.131-3.408-4.35-5.002-3.53-.797 1.951-1.574-3.914-2.329-3.611-.755-1.033-1.488-3.726-2.197 1.145-1.418.518-2.738-8.225-3.944-3.265-.603 1.678-1.177.257-1.72-.388-.543-3.159-1.055-5.231-1.534-3.569-.958.184-1.783-6.583-2.457-4.542-.674 1.089-1.198.527-1.553-5.019-.355-2.858-.541-5.789-.541-5.389 0-3.697.047-5.672.138-6.32.091 1.543.226-.702.404-1.215.355-3.82.879 2.916 1.553-2.873.337-3.767.712-3.759 1.122-5.189.41-.583.856.396 1.335-2.597.958-2.38 2.048 2.816 3.254-.713 1.206 1.394 2.526-2.212 3.944-1.248 1.418-1.629 2.933-3.797 4.527-4.483 3.188 3.826 6.694 5.848 10.373-2.101 3.679 11.244 7.185 8.126 10.373 2.101 1.594-.629 3.109 2.627 4.527 5.129 1.418 2.501 2.738 3.583 3.944.602 1.206.01 2.296 1.177 3.254 2.821.958 2.885 1.783-.043 2.457 5.678.674-1.732 1.198.235 1.553 5.019.177-2.909.313-1.539.404.547.089 2.088.135 2.401.135 4.844z"></path><path fill="#d6d6d6" d="M799.77 462.55c-.385.648-.767 1.082-1.148 1.375.376.488.765.747 1.166-.371.055-.226.11-.414.166-.586a8.622 8.622 0 0 0-.184-.418zM824.333 425.384l-.011.002.002.017.009-.019zM802.495 465.038c-.021.095-.043.163-.064.249.424.949.859 1.694 1.303 1.532.111-.764.223-1.324.335-1.752-.52 1.069-1.045 1.354-1.574-.029zM845.144 439.805c-.091-2.086-.226-3.456-.404-.547-.355-4.784-.879-6.751-1.553-5.019-.674-5.721-1.499-2.793-2.457-5.678-.958-1.644-2.048-2.811-3.254-2.821-1.206 2.982-2.526 1.9-3.944-.602-1.418-2.501-2.933-5.757-4.527-5.129-1.263 2.387-2.576 4.313-3.93 5.075.324.678.593 2.512.802 5.338.177-2.909.313-1.539.404.547.091 2.086.138 2.4.138 4.842 0 3.609-.186 6.9-.541 6.778-.177.66-.397 4.946-.657 5.126-.26-.567-.559 1.659-.896-1.497-.674 1.529-1.499 2.816-2.457 3.454-.958 3.47-2.048 1.514-3.254 5.045-1.206 7.108-2.526.769-3.944 3.265-1.418 2.091-2.933 3.887-4.527 2.465-.797-1.344-1.614.678-2.448 2.22-.834 1.542-1.687 2.604-2.554-.662-.226.77-.453 1.5-.681 2.123.48-.539.971.861 1.471 1.544.755-.303 1.532 5.561 2.33 3.611 1.594-.82 3.267 1.399 5.002 3.53 1.735.064 3.531 1.672 5.371-1.428.92 1.919 1.829 6.47 2.725 2.488.896 2.342 1.779-.079 2.646-3.031.867 3.266 1.719 2.204 2.554.662s1.651-3.565 2.448-2.22c1.594 1.422 3.109-.374 4.527-2.465 1.418-2.496 2.738 3.843 3.944-3.265 1.206-3.531 2.296-1.575 3.254-5.045.958-.638 1.783-1.925 2.457-3.454.337 3.155.637.929.896 1.497.26-.181.479-4.466.657-5.126.355.121.541-3.169.541-6.779-.002-2.443-.048-2.756-.139-4.842z"></path><path fill="none" stroke="#34323a" stroke-linecap="round" stroke-linejoin="round" stroke-miterlimit="10" stroke-width="8" d="M845.281 444.647c0 3.609-.186 6.9-.541 6.779-.177.66-.397 4.946-.657 5.126-.26-.567-.559 1.659-.896-1.497-.674 1.529-1.499 2.816-2.457 3.454-.958 3.47-2.048 1.514-3.254 5.045-1.206 7.108-2.526.769-3.944 3.265-1.418 2.091-2.933 3.887-4.527 2.465-.797-1.344-1.614.678-2.448 2.22s-1.687 2.604-2.554-.662c-.867 2.953-1.75 5.373-2.646 3.031-.896 3.982-1.805-.569-2.725-2.488-1.84 3.101-3.636 1.492-5.371 1.428-1.735-2.131-3.408-4.35-5.002-3.53-.797 1.951-1.574-3.914-2.329-3.611-.755-1.033-1.488-3.726-2.197 1.145-1.418.518-2.738-8.225-3.944-3.265-.603 1.678-1.177.257-1.72-.388-.543-3.159-1.055-5.231-1.534-3.569-.958.184-1.783-6.583-2.457-4.542-.674 1.089-1.198.527-1.553-5.019-.355-2.858-.541-5.789-.541-5.389 0-3.697.047-5.672.138-6.32.091 1.543.226-.702.404-1.215.355-3.82.879 2.916 1.553-2.873.337-3.767.712-3.759 1.122-5.189.41-.583.856.396 1.335-2.597.958-2.38 2.048 2.816 3.254-.713 1.206 1.394 2.526-2.212 3.944-1.248 1.418-1.629 2.933-3.797 4.527-4.483 3.188 3.826 6.694 5.848 10.373-2.101 3.679 11.244 7.185 8.126 10.373 2.101 1.594-.629 3.109 2.627 4.527 5.129 1.418 2.501 2.738 3.583 3.944.602 1.206.01 2.296 1.177 3.254 2.821.958 2.885 1.783-.043 2.457 5.678.674-1.732 1.198.235 1.553 5.019.177-2.909.313-1.539.404.547.089 2.088.135 2.401.135 4.844z"></path></svg>